<svg width="16" height="16" viewBox="0 0 16 16" fill="none" xmlns="http://www.w3.org/2000/svg">
<g id="arrow_forward_ios_FILL0_wght300_GRAD0_opsz24 5">
<path id="Vector" d="M9.8874 7.99966L4.8656 2.97786C4.73313 2.84538 4.66859 2.68769 4.672 2.50479C4.67543 2.32188 4.74338 2.16419 4.87585 2.03173C5.00833 1.89925 5.16602 1.83301 5.34892 1.83301C5.53182 1.83301 5.68951 1.89925 5.82199 2.03173L10.9258 7.14582C11.0463 7.26634 11.1357 7.40137 11.1938 7.55094C11.2519 7.70052 11.281 7.85009 11.281 7.99966C11.281 8.14922 11.2519 8.2988 11.1938 8.44837C11.1357 8.59794 11.0463 8.73298 10.9258 8.85349L5.81174 13.9676C5.67926 14.1001 5.52328 14.1646 5.34379 14.1612C5.16431 14.1578 5.00833 14.0898 4.87585 13.9573C4.74338 13.8249 4.67714 13.6672 4.67714 13.4843C4.67714 13.3014 4.74338 13.1437 4.87585 13.0112L9.8874 7.99966Z" fill="#D9D9D9"/>
</g>
</svg>
