<svg width="22" height="22" viewBox="0 0 22 22" fill="none" xmlns="http://www.w3.org/2000/svg">
<g id="4747497_social media_facebook_icon">
<path id="Vector" d="M18.3457 1.06641H3.46855C2.69562 1.06641 1.95434 1.37345 1.4078 1.92C0.861246 2.46655 0.554199 3.20782 0.554199 3.98076V18.8579C0.554199 19.6309 0.861246 20.3722 1.4078 20.9187C1.95434 21.4652 2.69562 21.7723 3.46855 21.7723H10.2394V14.2146H7.67961V11.2666H10.2394V9.09511C10.2394 7.86441 10.5797 6.90806 11.2604 6.22864C11.9411 5.54794 12.8638 5.20629 14.0298 5.20629C15.1971 5.20629 15.9529 5.25159 16.2984 5.337V7.96147H14.7429C14.1812 7.96147 13.7982 8.08053 13.5924 8.31864C13.3879 8.55547 13.2857 8.91264 13.2857 9.38759V11.2666H16.2013L15.8131 14.2146H13.2857V21.7723H18.3457C19.1187 21.7723 19.8599 21.4652 20.4065 20.9187C20.9531 20.3722 21.2601 19.6309 21.2601 18.8579V3.98076C21.2601 3.20782 20.9531 2.46655 20.4065 1.92C19.8599 1.37345 19.1187 1.06641 18.3457 1.06641Z" fill="#D9D9D9"/>
</g>
</svg>
