<svg width="24" height="28" viewBox="0 0 24 28" fill="none" xmlns="http://www.w3.org/2000/svg">
<g id="Objects">
<g id="Group">
<path id="Vector" d="M23.6243 2.14861C23.6134 2.12685 23.588 2.11235 23.5625 2.1196C23.3408 2.21388 23.119 2.29365 22.89 2.37705C22.2611 2.60911 21.6068 2.7614 20.9524 2.9137C20.2036 3.08049 19.4402 3.20015 18.695 3.38508C18.0516 3.54099 17.4118 3.72955 16.7938 3.97611C16.3285 4.15741 15.8705 4.35322 15.4415 4.60341C14.9326 4.88262 14.5218 5.29961 14.1219 5.71297C13.7548 6.09733 13.384 6.48168 13.0605 6.90593C12.8787 7.14524 12.726 7.40631 12.5806 7.66739C12.8096 6.8044 13.1295 5.93416 13.7148 5.24522C13.7584 5.19083 13.7075 5.12556 13.6457 5.15457C13.4967 5.22709 13.3585 5.32136 13.2168 5.40839C12.1335 6.14084 11.1665 7.05097 10.3341 8.05537C9.92693 8.55213 9.53433 9.05977 9.2108 9.61455C8.83638 10.2636 8.55283 10.9634 8.34926 11.685C8.32745 11.2571 8.3638 10.8293 8.42197 10.405C8.43287 10.3289 8.44378 10.2564 8.44741 10.1802C8.44741 10.1294 8.46195 10.0569 8.41106 10.0279C8.37471 10.0098 8.33836 10.0279 8.31291 10.0569C8.28019 10.0896 8.25475 10.1258 8.22567 10.1621C8.1675 10.2382 8.10934 10.318 8.05481 10.3978C7.87305 10.6552 7.70947 10.9272 7.5677 11.21C7.21872 11.9243 6.89882 12.6459 6.57529 13.3711C6.24813 14.0963 5.94641 14.836 5.63014 15.5648C5.32842 16.2538 4.99762 16.9318 4.65592 17.6026C4.47052 17.9616 4.28149 18.3206 4.05975 18.6614C3.96523 18.8065 3.86708 18.9479 3.7653 19.0857C3.77984 19.0567 3.79438 19.0313 3.80892 19.0023C4.107 18.4185 4.31057 17.7948 4.49597 17.1675C4.64864 16.765 4.80132 16.3625 4.97218 15.9709C5.17211 15.5249 5.35023 15.0717 5.52109 14.6148C5.8628 13.7518 6.27721 12.9251 6.74978 12.1237C7.05514 11.6052 7.3823 11.0976 7.68039 10.5718C7.9603 10.0787 8.18204 9.55653 8.43651 9.05252C8.62554 8.67542 8.8182 8.29831 8.98178 7.91033C9.02904 7.80155 9.0763 7.68914 9.11992 7.57674C9.1381 7.52235 9.15991 7.46433 9.17081 7.40631C9.17081 7.38456 9.17445 7.35918 9.15991 7.33742C9.12719 7.28666 9.06176 7.30479 9.02177 7.33742C8.90545 7.42444 8.79639 7.51509 8.6837 7.60937C8.32018 7.91758 7.94212 8.20766 7.55316 8.48324C8.38561 7.47521 9.2726 6.44542 9.67247 5.17632C9.70155 5.06754 9.78152 4.79559 9.70155 4.70494C9.64702 4.6578 9.58522 4.72307 9.55251 4.76296C9.21444 5.18357 8.85819 5.58969 8.46195 5.95591C8.61463 5.7166 8.76004 5.47003 8.8909 5.21621C9.10901 4.78109 9.32349 4.34234 9.50161 3.88909C9.71245 3.33431 9.8724 2.76503 10.0396 2.19937C10.2105 1.58295 10.3632 0.95928 10.5485 0.346485C10.5667 0.288469 10.5849 0.230453 10.5958 0.168811C10.5958 0.150681 10.6031 0.128925 10.5958 0.110795C10.5849 0.0781608 10.5449 0.0564048 10.5122 0.0672828C10.4831 0.0745348 10.454 0.0926648 10.4286 0.114421C10.0578 0.462517 9.727 0.8505 9.37075 1.20947C9.10902 1.4778 8.84365 1.74975 8.59282 2.02895C8.08753 2.60186 7.63677 3.22553 7.28052 3.89997C6.95699 4.51276 6.7207 5.17632 6.57529 5.85438C6.37899 6.73913 6.31356 7.64563 6.18996 8.54125C6.04819 8.15327 5.96458 7.74353 5.94641 7.32654C5.93914 7.18875 5.93186 7.04371 5.92459 6.89505C5.92459 6.82615 5.92459 6.67749 5.81917 6.71012C5.78646 6.72825 5.76828 6.76451 5.75011 6.80077C5.71739 6.86604 5.68831 6.93493 5.65923 7.00383C5.56835 7.21414 5.46656 7.41719 5.37205 7.62387C5.10304 8.20403 4.87039 8.80595 4.75043 9.43325C4.64501 9.94814 4.59048 10.4739 4.59048 10.9961C4.59048 11.7285 4.70317 12.4501 4.69954 13.1862C4.4996 12.8634 4.29603 12.5371 4.21242 12.16C4.1688 11.9823 4.13608 11.8047 4.107 11.627C4.09973 11.5762 4.08883 11.5218 4.08156 11.4711C4.07429 11.4348 4.07429 11.3877 4.0452 11.3623C3.97977 11.3115 3.93615 11.3985 3.92161 11.4529C3.79801 11.8445 3.73621 12.2579 3.72167 12.6713C3.7035 13.0883 3.74348 13.5053 3.78347 13.9222C3.81982 14.2993 3.85981 14.6765 3.88526 15.0572C3.86708 15.195 3.85981 15.3328 3.8489 15.4705C3.80528 16.1486 3.72894 16.8267 3.59808 17.4939C3.51083 18.0305 3.39814 18.5599 3.20911 19.0748C3.10006 19.441 2.95828 19.7964 2.78016 20.1336C2.75108 20.1807 2.72563 20.2315 2.70019 20.2786C2.34757 20.9059 2.02404 21.5477 1.66779 22.1714C1.45332 22.5376 1.24611 22.9111 1.05345 23.2918C0.911676 23.5384 0.78081 23.7886 0.668119 24.046C0.569969 24.2636 0.475454 24.4848 0.38821 24.706C0.355493 24.8003 0.260978 24.9888 0.311871 25.0831C0.38821 25.152 0.450008 25.0613 0.497265 24.9634C0.508171 24.9525 0.519076 24.9417 0.526347 24.9308C0.555428 24.8909 0.580875 24.851 0.602686 24.8075C0.660849 24.7096 0.719012 24.6153 0.773539 24.5211C1.01346 24.1041 1.24611 23.6834 1.4824 23.2628C1.83501 22.6101 2.22034 21.9756 2.60931 21.341C2.67474 21.2359 2.73654 21.1307 2.80197 21.022C2.88195 20.9059 2.96192 20.7935 3.04553 20.6775C3.19457 20.4744 3.35452 20.2786 3.52901 20.0973C3.74348 19.8616 4.01249 19.6332 4.26332 19.4338C4.62683 19.1401 4.954 18.8065 5.2739 18.4693C6.01911 17.6607 6.7207 16.8122 7.44774 15.9854C7.93122 15.4053 8.45105 14.8469 9.00723 14.3392C9.41801 13.9948 9.84332 13.6648 10.2759 13.3493C10.9666 12.8562 11.6936 12.4174 12.3807 11.9171C13.1913 11.326 13.9838 10.7096 14.7108 10.017C14.7326 9.99165 14.7581 9.96265 14.7436 9.92639C14.729 9.87925 14.6708 9.8865 14.6309 9.89738C14.4673 9.94089 14.311 10.0062 14.151 10.046C13.9874 10.0823 13.8202 10.1149 13.6566 10.1439C13.2095 10.231 12.7515 10.2672 12.2971 10.2709C12.5552 10.173 12.8169 10.0787 13.0786 9.99165C13.7293 9.79585 14.3873 9.62905 15.0235 9.38974C16.154 9.00176 17.1428 8.30556 18.0479 7.54048C18.2697 7.35555 18.4951 7.17062 18.6986 6.96394C18.735 6.92043 18.7895 6.88054 18.7968 6.8189C18.7968 6.74638 18.7095 6.74638 18.655 6.76089C18.1461 6.86967 17.6335 6.97482 17.1173 7.02921C16.7756 7.06184 16.4194 7.08723 16.0777 7.02558C16.4739 6.90593 16.8738 6.80077 17.2809 6.71737C17.659 6.64123 18.0407 6.56871 18.4078 6.4563C18.9785 6.28951 19.4911 5.96316 19.9273 5.5643C20.1891 5.31411 20.4326 5.04579 20.6725 4.77384C20.927 4.48376 21.156 4.17192 21.425 3.89272C21.7776 3.52286 22.163 3.18565 22.5737 2.88469C22.8791 2.64537 23.2063 2.44232 23.5443 2.25014C23.5698 2.23563 23.5952 2.22838 23.6207 2.21388C23.6425 2.19937 23.6497 2.17399 23.6388 2.14861H23.6243ZM3.75802 19.3758C3.75802 19.3758 3.75802 19.3758 3.75075 19.3758H3.75439H3.75802ZM4.62683 15.4778C4.90674 14.564 5.17575 13.6467 5.46656 12.7365C5.7392 11.8047 6.01184 10.8728 6.29902 9.94814C6.61891 8.85309 6.87338 7.73991 7.21145 6.64848C7.45137 5.87977 7.72037 5.11831 8.0221 4.37135C8.29473 3.69691 8.60009 3.03335 9.0145 2.43144C8.67643 3.23278 8.32745 4.02688 8.033 4.84273C7.74946 5.55705 7.50953 6.28588 7.30233 7.02558C6.79704 8.66091 6.49168 10.3506 6.00457 11.9896C5.79736 12.7148 5.56471 13.4327 5.31388 14.1471C5.13576 14.6583 4.92492 15.1696 4.75043 15.6809C4.36146 16.8158 4.00158 17.9616 3.55809 19.0784C3.55082 19.0857 3.54355 19.0929 3.53628 19.1002C3.52174 19.0965 3.5072 19.1002 3.49629 19.1038C3.57263 18.8645 3.64533 18.6215 3.70713 18.3786C4.00158 17.4068 4.32511 16.4459 4.62683 15.4778ZM15.5542 6.56508C15.1325 6.85516 14.7108 7.14524 14.311 7.4607C13.6457 7.9901 12.9987 8.53763 12.3552 9.09241C11.9808 9.426 11.6427 9.79948 11.2901 10.1585C10.9411 10.5211 10.5885 10.8764 10.2577 11.2535C9.81788 11.743 9.36711 12.2253 8.94543 12.7329C8.57464 13.168 8.23657 13.6322 7.90213 14.0963C7.65494 14.4263 7.40411 14.7562 7.17146 15.0971C6.89519 15.4923 6.60801 15.8767 6.33173 16.2719C6.05546 16.6708 5.78282 17.0696 5.51382 17.4721C5.34296 17.7259 5.17211 17.9834 4.97218 18.2191C4.73589 18.4983 4.49233 18.792 4.22333 19.0494C4.12154 19.1401 4.02339 19.2307 3.92524 19.325C3.92524 19.325 3.92524 19.325 3.92161 19.325C3.87435 19.3141 3.87435 19.2706 3.88526 19.2343C4.07792 19.0204 4.27059 18.8101 4.45962 18.5925C4.68863 18.3278 4.89584 18.045 5.0885 17.7549C6.11362 16.261 7.14965 14.7707 8.25111 13.3276C8.66189 12.7946 9.0872 12.2688 9.54524 11.7756C10.3341 10.9417 11.1484 10.1367 11.9626 9.32447C13.0132 8.28018 14.1328 7.30116 15.3506 6.4563C16.3212 5.80362 17.3536 5.24522 18.4187 4.76296C17.4227 5.29598 16.4921 5.94503 15.5542 6.56871V6.56508Z" fill="#FFFFFF"/>
<path id="Vector_2" d="M16.4488 24.9134C16.4198 24.975 16.3798 25.0294 16.3362 25.0802C15.8781 25.5552 15.202 25.8017 14.5622 25.9286C13.9151 26.0628 13.2499 25.9395 12.6174 25.7981C13.2462 25.2796 13.9515 24.674 14.0932 23.8292C14.2314 22.8175 13.2753 22.1612 12.3556 22.1177C9.28026 22.0162 6.50298 23.6805 3.89656 25.12C2.90779 25.6603 1.80632 26.3529 0.63216 26.0809C0.468577 26.0338 0.301358 25.9286 0.250466 25.7546C0.254101 25.7075 0.23229 25.6531 0.185032 25.6313C-0.178486 25.5588 0.0796121 26.0701 0.246831 26.1607C1.69 26.9838 3.69662 25.4573 4.97257 24.7973C6.28851 24.0794 7.64807 23.3542 9.08033 22.8864C10.269 22.5347 11.6758 22.1431 12.9009 22.4731C13.5262 22.6544 14.0133 23.307 13.8133 23.9597C13.5625 24.7139 12.9118 25.247 12.3047 25.7183C11.3487 25.4899 10.3563 25.2397 9.36751 25.3811C8.82223 25.479 8.19334 25.6712 7.9207 26.1933C7.49539 27.0491 8.5605 27.2159 9.17848 27.1977C10.3381 27.1615 11.4432 26.6865 12.3593 25.9867C13.3989 26.2586 14.4277 26.3601 15.4419 25.9323C15.8999 25.722 16.4198 25.4899 16.667 25.0221C16.7433 24.8807 16.5179 24.7647 16.4452 24.9061L16.4488 24.9134ZM9.14576 26.9548C8.81132 26.9294 8.22242 26.9766 8.08065 26.6031C8.05884 26.1317 8.58231 25.8561 8.97491 25.7365C9.98185 25.4319 11.0433 25.6857 12.0394 25.9178C11.1996 26.5306 10.1927 26.9258 9.14576 26.9548Z" fill="#FFFFFF"/>
</g>
</g>
</svg>
