<svg width="29" height="34" viewBox="0 0 29 34" fill="none" xmlns="http://www.w3.org/2000/svg">
<g id="Objects">
<g id="Group">
<path id="Vector" d="M28.7913 2.54006C28.778 2.51355 28.747 2.49587 28.716 2.50471C28.4458 2.61961 28.1755 2.71683 27.8964 2.81847C27.1299 3.1013 26.3325 3.28691 25.535 3.47251C24.6223 3.6758 23.692 3.82163 22.7837 4.04701C21.9996 4.23703 21.2198 4.46683 20.4667 4.76734C19.8996 4.9883 19.3413 5.22693 18.8185 5.53186C18.1983 5.87214 17.6977 6.38034 17.2103 6.88413C16.7628 7.35256 16.311 7.821 15.9166 8.33804C15.6951 8.62971 15.5091 8.94789 15.3318 9.26608C15.611 8.21431 16.0008 7.1537 16.7141 6.31405C16.7673 6.24777 16.7053 6.16822 16.6299 6.20358C16.4483 6.29196 16.2799 6.40686 16.1072 6.51292C14.7869 7.4056 13.6084 8.51481 12.5939 9.73893C12.0977 10.3444 11.6192 10.963 11.2249 11.6392C10.7685 12.4302 10.423 13.2831 10.1749 14.1625C10.1483 13.6411 10.1926 13.1196 10.2635 12.6026C10.2768 12.5098 10.2901 12.4214 10.2945 12.3286C10.2945 12.2667 10.3122 12.1783 10.2502 12.143C10.2059 12.1209 10.1616 12.143 10.1306 12.1783C10.0907 12.2181 10.0597 12.2623 10.0242 12.3065C9.95336 12.3993 9.88247 12.4965 9.81602 12.5937C9.5945 12.9075 9.39513 13.2389 9.22234 13.5836C8.79703 14.4542 8.40716 15.3336 8.01285 16.2175C7.61412 17.1013 7.2464 18.0028 6.86095 18.8911C6.49323 19.7307 6.09007 20.5571 5.67361 21.3747C5.44766 21.8122 5.21728 22.2497 4.94703 22.6651C4.83184 22.8418 4.71222 23.0142 4.58817 23.1821C4.60589 23.1468 4.62361 23.1158 4.64133 23.0805C5.00462 22.369 5.25272 21.6089 5.47867 20.8444C5.66475 20.3538 5.85083 19.8633 6.05905 19.386C6.30272 18.8425 6.51981 18.2901 6.72804 17.7332C7.1445 16.6815 7.64956 15.6739 8.22551 14.6973C8.59766 14.0653 8.9964 13.4466 9.35969 12.8058C9.70083 12.2048 9.97108 11.5685 10.2812 10.9542C10.5116 10.4946 10.7464 10.035 10.9458 9.56216C11.0034 9.42958 11.061 9.29259 11.1141 9.15559C11.1363 9.08931 11.1629 9.0186 11.1761 8.94789C11.1761 8.92138 11.1806 8.89044 11.1629 8.86393C11.123 8.80206 11.0432 8.82416 10.9945 8.86393C10.8527 8.96999 10.7198 9.08047 10.5825 9.19537C10.1394 9.571 9.67867 9.92453 9.20462 10.2604C10.2192 9.03186 11.3002 7.77681 11.7875 6.23009C11.823 6.09751 11.9204 5.76607 11.823 5.65559C11.7565 5.59815 11.6812 5.67769 11.6413 5.7263C11.2293 6.23893 10.7951 6.73388 10.3122 7.18022C10.4983 6.88855 10.6755 6.58804 10.835 6.2787C11.1008 5.7484 11.3622 5.21368 11.5793 4.66128C11.8363 3.98514 12.0312 3.29133 12.235 2.60193C12.4432 1.85067 12.6293 1.09057 12.8553 0.343726C12.8774 0.273019 12.8996 0.202312 12.9129 0.127186C12.9129 0.10509 12.9217 0.0785749 12.9129 0.056479C12.8996 0.0167063 12.8508 -0.00980889 12.811 0.00344869C12.7755 0.0122871 12.7401 0.034383 12.7091 0.0608982C12.2572 0.485141 11.854 0.957994 11.4198 1.39549C11.1008 1.72251 10.7774 2.05395 10.4717 2.39423C9.85589 3.09246 9.30652 3.85257 8.87234 4.67453C8.47804 5.42138 8.19007 6.23009 8.01285 7.05648C7.77361 8.13476 7.69386 9.23956 7.54323 10.3311C7.37045 9.85825 7.26855 9.35888 7.2464 8.85067C7.23753 8.68274 7.22867 8.50597 7.21981 8.32479C7.21981 8.24082 7.21981 8.05964 7.09133 8.09941C7.05146 8.1215 7.02931 8.1657 7.00715 8.20989C6.96728 8.28943 6.93184 8.3734 6.8964 8.45736C6.78564 8.71368 6.66159 8.96115 6.5464 9.21304C6.21855 9.92011 5.935 10.6537 5.7888 11.4182C5.66032 12.0457 5.59386 12.6865 5.59386 13.3229C5.59386 14.2156 5.73121 15.095 5.72678 15.9921C5.4831 15.5988 5.235 15.201 5.1331 14.7415C5.07994 14.5249 5.04007 14.3084 5.00462 14.0918C4.99576 14.03 4.98247 13.9637 4.97361 13.9018C4.96475 13.8576 4.96475 13.8002 4.92931 13.7692C4.84956 13.7074 4.7964 13.8134 4.77867 13.8797C4.62804 14.357 4.55272 14.8608 4.535 15.3646C4.51285 15.8728 4.56159 16.381 4.61032 16.8892C4.65462 17.3488 4.70336 17.8084 4.73437 18.2724C4.71222 18.4403 4.70336 18.6082 4.69007 18.7762C4.6369 19.6026 4.54386 20.429 4.38437 21.2421C4.27804 21.8961 4.1407 22.5413 3.91032 23.1689C3.77741 23.6152 3.60462 24.0483 3.38753 24.4593C3.35209 24.5167 3.32108 24.5786 3.29007 24.636C2.86032 25.4005 2.46602 26.1827 2.03184 26.9428C1.77045 27.3892 1.51791 27.8444 1.2831 28.3084C1.11032 28.6089 0.950826 28.9138 0.813484 29.2276C0.693864 29.4927 0.578674 29.7623 0.472345 30.0319C0.432471 30.1468 0.317282 30.3766 0.379307 30.4915C0.472345 30.5754 0.547661 30.4649 0.605256 30.3456C0.618547 30.3324 0.631839 30.3191 0.640699 30.3058C0.676142 30.2572 0.707155 30.2086 0.733737 30.1556C0.804623 30.0363 0.87551 29.9214 0.941965 29.8065C1.23437 29.2983 1.51791 28.7856 1.80589 28.273C2.23564 27.4776 2.70526 26.7042 3.17931 25.9308C3.25905 25.8027 3.33437 25.6745 3.41412 25.542C3.51159 25.4005 3.60905 25.2635 3.71095 25.1221C3.8926 24.8747 4.08753 24.636 4.30019 24.4151C4.56159 24.1278 4.88943 23.8494 5.19513 23.6064C5.63817 23.2484 6.0369 22.8418 6.42678 22.4308C7.335 21.4454 8.19007 20.4113 9.07614 19.4037C9.66538 18.6966 10.2989 18.0161 10.9768 17.3974C11.4774 16.9776 11.9958 16.5754 12.523 16.1909C13.3647 15.5899 14.2508 15.0552 15.0882 14.4454C16.0761 13.725 17.042 12.9738 17.928 12.1297C17.9546 12.0988 17.9856 12.0634 17.9679 12.0192C17.9502 11.9618 17.8793 11.9706 17.8306 11.9839C17.6312 12.0369 17.4407 12.1165 17.2458 12.1651C17.0464 12.2093 16.8426 12.249 16.6432 12.2844C16.0983 12.3904 15.5401 12.4346 14.9863 12.4391C15.3008 12.3197 15.6198 12.2048 15.9388 12.0988C16.7318 11.8601 17.5337 11.6569 18.3091 11.3652C19.6869 10.8923 20.892 10.0439 21.9951 9.1114C22.2654 8.88602 22.5401 8.66065 22.7882 8.40875C22.8325 8.35572 22.8989 8.30711 22.9078 8.23198C22.9078 8.1436 22.8015 8.1436 22.735 8.16128C22.1147 8.29385 21.4901 8.42201 20.861 8.4883C20.4445 8.52807 20.0103 8.559 19.5939 8.48388C20.0768 8.33804 20.5641 8.20989 21.0603 8.10825C21.5211 8.01544 21.9863 7.92706 22.4337 7.79006C23.1293 7.58678 23.754 7.18905 24.2856 6.70294C24.6046 6.39802 24.9015 6.071 25.1939 5.73956C25.504 5.38602 25.7831 5.00597 26.111 4.6657C26.5407 4.21494 27.0103 3.80395 27.511 3.43716C27.8831 3.14549 28.2818 2.89802 28.6939 2.6638C28.7249 2.64613 28.7559 2.63729 28.7869 2.61961C28.8135 2.60193 28.8223 2.571 28.8091 2.54006H28.7913ZM4.57931 23.5356C4.57931 23.5356 4.57931 23.5356 4.57045 23.5356H4.57488H4.57931ZM5.63817 18.785C5.97931 17.6714 6.30716 16.5533 6.66159 15.4441C6.99386 14.3084 7.32614 13.1726 7.67614 12.0457C8.06602 10.7112 8.37614 9.35446 8.78817 8.02428C9.08057 7.08741 9.40842 6.15938 9.77614 5.24903C10.1084 4.42706 10.4806 3.61835 10.9856 2.88476C10.5736 3.8614 10.1483 4.82921 9.78943 5.82352C9.44386 6.69411 9.15146 7.58236 8.89893 8.48388C8.2831 10.4769 7.91095 12.5363 7.31728 14.5338C7.06475 15.4176 6.78121 16.2926 6.47551 17.1632C6.25842 17.7863 6.00146 18.4094 5.7888 19.0325C5.31475 20.4157 4.87614 21.8122 4.33564 23.1733C4.32678 23.1821 4.31791 23.1909 4.30905 23.1998C4.29133 23.1954 4.27361 23.1998 4.26032 23.2042C4.35336 22.9125 4.44197 22.6165 4.51728 22.3204C4.87614 21.136 5.27045 19.9649 5.63817 18.785ZM18.9559 7.92264C18.442 8.27618 17.928 8.62971 17.4407 9.01418C16.6299 9.65938 15.8413 10.3267 15.0572 11.0028C14.6008 11.4094 14.1888 11.8646 13.7591 12.3021C13.3337 12.744 12.904 13.1771 12.5008 13.6367C11.9647 14.2332 11.4154 14.821 10.9015 15.4397C10.4496 15.97 10.0375 16.5356 9.62994 17.1013C9.32867 17.5034 9.02298 17.9056 8.73943 18.321C8.40272 18.8027 8.05272 19.2711 7.71602 19.7528C7.37931 20.2389 7.04703 20.725 6.71918 21.2156C6.51095 21.5249 6.30272 21.8387 6.05905 22.1259C5.77108 22.4662 5.47424 22.8242 5.1464 23.1379C5.02234 23.2484 4.90272 23.3589 4.7831 23.4738C4.7831 23.4738 4.7831 23.4738 4.77867 23.4738C4.72108 23.4605 4.72108 23.4075 4.73437 23.3633C4.96918 23.1026 5.20399 22.8463 5.43437 22.5811C5.71348 22.2585 5.96602 21.9138 6.20083 21.5603C7.45019 19.7396 8.71285 17.9233 10.0553 16.1644C10.5559 15.5148 11.0742 14.874 11.6325 14.273C12.5939 13.2566 13.5863 12.2755 14.5787 11.2856C15.8591 10.0129 17.2236 8.81974 18.7078 7.79006C19.8907 6.99461 21.1489 6.31405 22.447 5.7263C21.2331 6.37592 20.0989 7.16696 18.9559 7.92706V7.92264Z" fill="#5534DA"/>
<path id="Vector_2" d="M20.0461 30.2837C20.0107 30.3588 19.962 30.4251 19.9088 30.487C19.3506 31.0659 18.5265 31.3664 17.7468 31.5211C16.9582 31.6846 16.1474 31.5343 15.3765 31.362C16.143 30.73 17.0025 29.992 17.1753 28.9623C17.3436 27.7294 16.1784 26.9295 15.0575 26.8765C11.3094 26.7528 7.92462 28.7812 4.74803 30.5356C3.54297 31.194 2.20057 32.0381 0.769552 31.7067C0.570185 31.6492 0.366388 31.5211 0.304362 31.3089C0.308793 31.2515 0.282211 31.1852 0.224616 31.1587C-0.218422 31.0703 0.0961346 31.6934 0.299932 31.8039C2.05879 32.807 4.50436 30.9466 6.05943 30.1423C7.66322 29.2673 9.32019 28.3834 11.0658 27.8134C12.5145 27.3847 14.229 26.9074 15.7221 27.3096C16.4841 27.5305 17.0778 28.326 16.8341 29.1214C16.5284 30.0406 15.7354 30.6903 14.9955 31.2647C13.8303 30.9863 12.6208 30.6814 11.4158 30.8538C10.7512 30.9731 9.98474 31.2073 9.65246 31.8437C9.13411 32.8866 10.4322 33.0899 11.1854 33.0678C12.5987 33.0236 13.9455 32.4447 15.062 31.5918C16.329 31.9232 17.5828 32.0469 18.8189 31.5255C19.3771 31.2692 20.0107 30.9863 20.312 30.4163C20.405 30.2439 20.1303 30.1025 20.0417 30.2748L20.0461 30.2837ZM11.1455 32.7717C10.7379 32.7408 10.0202 32.7982 9.8474 32.343C9.82082 31.7685 10.4588 31.4327 10.9373 31.2868C12.1645 30.9156 13.4582 31.225 14.6721 31.5078C13.6487 32.2546 12.4215 32.7363 11.1455 32.7717Z" fill="#5534DA"/>
</g>
</g>
</svg>
