<svg width="165" height="190" viewBox="0 0 165 190" fill="none" xmlns="http://www.w3.org/2000/svg">
<g id="&#225;&#132;&#140;&#225;&#133;&#161;&#225;&#132;&#137;&#225;&#133;&#161;&#225;&#134;&#171; 1 1" clip-path="url(#clip0_540_4803)">
<g id="Objects">
<g id="Group">
<path id="Vector" d="M164.975 14.5336C164.899 14.3814 164.721 14.28 164.544 14.3307C163 14.9901 161.456 15.5481 159.861 16.1315C155.481 17.7548 150.924 18.8201 146.367 19.8853C141.152 21.0521 135.835 21.8891 130.646 23.1826C126.164 24.2732 121.709 25.5921 117.405 27.3169C114.164 28.5851 110.975 29.9547 107.987 31.7048C104.443 33.6578 101.582 36.5746 98.7974 39.4661C96.2404 42.1546 93.6582 44.8431 91.405 47.8107C90.1392 49.4847 89.0759 51.3109 88.0632 53.1371C89.6582 47.1005 91.886 41.0132 95.962 36.1941C96.2658 35.8137 95.9113 35.3571 95.4809 35.5601C94.443 36.0673 93.4809 36.7268 92.4936 37.3355C84.9493 42.459 78.2151 48.8252 72.4177 55.851C69.5822 59.3258 66.848 62.8767 64.5949 66.7573C61.9873 71.2974 60.0126 76.1926 58.5949 81.24C58.443 78.247 58.6961 75.2541 59.1012 72.2866C59.1772 71.754 59.2531 71.2467 59.2784 70.7141C59.2784 70.359 59.3797 69.8517 59.0253 69.6488C58.7721 69.522 58.5189 69.6488 58.3417 69.8517C58.1139 70.08 57.9366 70.3336 57.7341 70.5872C57.329 71.1199 56.924 71.6779 56.5442 72.2359C55.2784 74.0367 54.1392 75.939 53.1518 77.9173C50.7215 82.914 48.4936 87.9613 46.2404 93.034C43.962 98.1068 41.8607 103.281 39.6582 108.379C37.5569 113.198 35.2531 117.941 32.8734 122.633C31.5822 125.144 30.2658 127.655 28.7215 130.04C28.0632 131.054 27.3797 132.043 26.6708 133.007C26.7721 132.804 26.8734 132.627 26.9746 132.424C29.0506 128.34 30.4683 123.978 31.7594 119.59C32.8227 116.774 33.886 113.959 35.0759 111.22C36.4683 108.1 37.7088 104.93 38.8987 101.734C41.2784 95.6972 44.1645 89.9143 47.4556 84.309C49.5822 80.682 51.8607 77.1311 53.9366 73.4533C55.886 70.0039 57.4303 66.3515 59.2025 62.826C60.5189 60.1881 61.8607 57.5503 62.9999 54.8364C63.329 54.0755 63.6582 53.2892 63.962 52.503C64.0885 52.1225 64.2404 51.7167 64.3164 51.3109C64.3164 51.1587 64.3417 50.9811 64.2404 50.829C64.0126 50.4739 63.5569 50.6007 63.2784 50.829C62.4683 51.4377 61.7088 52.0718 60.924 52.7312C58.3923 54.8871 55.7594 56.9162 53.0506 58.8439C58.848 51.7928 65.0253 44.5895 67.8101 35.7122C68.0126 34.9513 68.5696 33.0491 68.0126 32.415C67.6329 32.0852 67.2025 32.5418 66.9746 32.8208C64.6202 35.763 62.1392 38.6037 59.3797 41.1654C60.443 39.4914 61.4556 37.7667 62.367 35.9912C63.886 32.9476 65.3797 29.8786 66.6202 26.7081C68.0885 22.8275 69.2025 18.8454 70.367 14.8887C71.5569 10.5769 72.6202 6.21433 73.9113 1.92787C74.0379 1.52205 74.1645 1.11624 74.2404 0.685053C74.2404 0.558235 74.2911 0.406053 74.2404 0.279235C74.1645 0.0509625 73.886 -0.101219 73.6582 -0.0251284C73.4556 0.0255989 73.2531 0.152417 73.0759 0.304599C70.4936 2.73951 68.1898 5.45342 65.7088 7.96442C63.886 9.84133 62.0379 11.7436 60.2911 13.6966C56.7721 17.7041 53.6329 22.0666 51.1518 26.7842C48.8987 31.0707 47.2531 35.7122 46.2404 40.4552C44.8734 46.644 44.4177 52.9849 43.5569 59.2497C42.5696 56.5358 41.9873 53.6697 41.8607 50.7529C41.8101 49.7891 41.7594 48.7745 41.7088 47.7346C41.7088 47.2527 41.7088 46.2128 40.9746 46.4411C40.7468 46.5679 40.6202 46.8215 40.4936 47.0751C40.2658 47.5317 40.0632 48.0136 39.8607 48.4955C39.2278 49.9666 38.5189 51.387 37.8607 52.8327C35.9873 56.8909 34.367 61.1012 33.5316 65.4891C32.7974 69.0908 32.4177 72.7685 32.4177 76.4209C32.4177 81.5443 33.2025 86.5917 33.1772 91.7405C31.7847 89.4831 30.367 87.2004 29.7847 84.5626C29.4809 83.3198 29.2531 82.077 29.0506 80.8341C28.9999 80.479 28.924 80.0986 28.8734 79.7435C28.8227 79.4899 28.8227 79.1601 28.6202 78.9826C28.1645 78.6275 27.8607 79.2362 27.7594 79.6167C26.8987 82.356 26.4683 85.2474 26.367 88.1389C26.2404 91.0557 26.5189 93.9725 26.7974 96.8893C27.0506 99.5271 27.3291 102.165 27.5063 104.828C27.3797 105.792 27.3291 106.756 27.2531 107.72C26.9493 112.463 26.4177 117.206 25.5063 121.873C24.8987 125.626 24.1139 129.329 22.7974 132.931C22.0379 135.493 21.0506 137.978 19.8101 140.337C19.6075 140.667 19.4303 141.022 19.2531 141.352C16.7974 145.74 14.5442 150.229 12.0632 154.592C10.5696 157.153 9.12652 159.766 7.78475 162.429C6.79741 164.154 5.88601 165.904 5.1012 167.705C4.41766 169.226 3.75943 170.774 3.15184 172.321C2.92399 172.98 2.26576 174.299 2.62019 174.959C3.15184 175.441 3.58222 174.806 3.91133 174.122C3.98728 174.046 4.06323 173.969 4.11386 173.893C4.31639 173.614 4.49361 173.335 4.64551 173.031C5.05057 172.346 5.45564 171.687 5.83538 171.027C7.50627 168.11 9.12652 165.168 10.7721 162.226C13.2278 157.661 15.9113 153.222 18.6202 148.783C19.0759 148.048 19.5063 147.312 19.962 146.551C20.5189 145.74 21.0759 144.953 21.6582 144.142C22.6961 142.721 23.8101 141.352 25.0253 140.084C26.5189 138.435 28.3923 136.837 30.1392 135.442C32.6708 133.388 34.9493 131.054 37.1772 128.695C42.367 123.039 47.2531 117.104 52.3164 111.321C55.6835 107.263 59.3037 103.357 63.1772 99.8061C66.0379 97.3966 68.9999 95.0885 72.0126 92.8819C76.8227 89.4324 81.886 86.3634 86.6708 82.8632C92.3164 78.729 97.8354 74.4171 102.899 69.5727C103.051 69.3951 103.228 69.1922 103.127 68.9386C103.025 68.6089 102.62 68.6596 102.342 68.7357C101.202 69.0401 100.114 69.4966 98.9999 69.7756C97.8607 70.0292 96.6961 70.2575 95.5569 70.4604C92.443 71.0691 89.2531 71.3228 86.0885 71.3481C87.886 70.6633 89.7088 70.0039 91.5316 69.3951C96.0632 68.0255 100.646 66.8588 105.076 65.1848C112.949 62.4709 119.835 57.6011 126.139 52.2493C127.683 50.9558 129.253 49.6622 130.671 48.2165C130.924 47.9121 131.304 47.6331 131.354 47.202C131.354 46.6947 130.747 46.6947 130.367 46.7961C126.823 47.5571 123.253 48.2926 119.658 48.6731C117.278 48.9013 114.797 49.0789 112.418 48.6477C115.177 47.8107 117.962 47.0751 120.797 46.4918C123.43 45.9591 126.089 45.4519 128.646 44.6656C132.62 43.4989 136.19 41.2161 139.228 38.4261C141.051 36.6761 142.747 34.7991 144.418 32.8969C146.19 30.8678 147.785 28.6865 149.658 26.7335C152.114 24.1464 154.797 21.7876 157.658 19.6824C159.785 18.0084 162.063 16.5881 164.418 15.2438C164.595 15.1423 164.772 15.0916 164.949 14.9901C165.101 14.8887 165.152 14.7111 165.076 14.5336H164.975ZM26.6202 135.036C26.6202 135.036 26.6202 135.036 26.5696 135.036H26.5949H26.6202ZM32.6708 107.77C34.6202 101.379 36.4936 94.9617 38.5189 88.5954C40.4177 82.077 42.3164 75.5585 44.3164 69.0908C46.5442 61.431 48.3164 53.6443 50.6708 46.0099C52.3417 40.6328 54.2151 35.3064 56.3164 30.0815C58.2151 25.3639 60.3417 20.7223 63.2278 16.512C60.8734 22.1173 58.443 27.672 56.3923 33.3788C54.4177 38.3754 52.7468 43.4735 51.3037 48.6477C47.7847 60.0867 45.6582 71.9061 42.2658 83.3705C40.8227 88.4432 39.2025 93.4652 37.4556 98.4619C36.2151 102.038 34.7468 105.614 33.5316 109.191C30.8227 117.13 28.3164 125.144 25.2278 132.956C25.1772 133.007 25.1265 133.058 25.0759 133.109C24.9746 133.083 24.8734 133.109 24.7974 133.134C25.3291 131.46 25.8354 129.761 26.2658 128.061C28.3164 121.264 30.5696 114.542 32.6708 107.77ZM108.772 45.4265C105.835 47.4556 102.899 49.4847 100.114 51.6913C95.4809 55.3944 90.9746 59.2243 86.4936 63.105C83.886 65.4384 81.5316 68.0509 79.0759 70.5619C76.6455 73.0982 74.1898 75.5839 71.886 78.2217C68.8227 81.6458 65.6835 85.0191 62.7468 88.57C60.1645 91.6137 57.8101 94.8602 55.4809 98.1068C53.7594 100.415 52.0126 102.723 50.3923 105.107C48.4683 107.872 46.4683 110.56 44.5442 113.325C42.6202 116.115 40.7215 118.905 38.848 121.72C37.6582 123.496 36.4683 125.297 35.0759 126.945C33.4303 128.898 31.7341 130.953 29.8607 132.754C29.1518 133.388 28.4683 134.022 27.7847 134.681C27.7847 134.681 27.7847 134.681 27.7594 134.681C27.4303 134.605 27.4303 134.301 27.5063 134.047C28.848 132.551 30.1898 131.08 31.5063 129.558C33.1012 127.706 34.5442 125.728 35.886 123.699C43.0253 113.249 50.2404 102.824 57.9113 92.7297C60.7721 89.0012 63.7341 85.3235 66.924 81.874C72.4177 76.0404 78.0885 70.4097 83.7594 64.7282C91.0759 57.4235 98.8734 50.5753 107.354 44.6656C114.114 40.1001 121.304 36.1941 128.721 32.8208C121.785 36.5492 115.304 41.0893 108.772 45.4519V45.4265Z" fill="#FFFFFF"/>
<path id="Vector_2" d="M115 173.766C114.797 174.197 114.519 174.578 114.215 174.933C111.025 178.255 106.316 179.98 101.861 180.868C97.3543 181.806 92.7214 180.944 88.3164 179.955C92.6961 176.328 97.6075 172.092 98.5948 166.182C99.5569 159.106 92.8986 154.515 86.4936 154.211C65.0759 153.5 45.7341 165.142 27.5822 175.212C20.6961 178.991 13.0252 183.835 4.848 181.933C3.70876 181.603 2.54421 180.868 2.18978 179.65C2.21509 179.321 2.06319 178.94 1.73408 178.788C-0.797567 178.281 0.999902 181.857 2.16446 182.491C12.2151 188.249 26.1898 177.571 35.0759 172.954C44.2404 167.932 53.7088 162.86 63.6834 159.588C71.9619 157.127 81.7594 154.388 90.291 156.696C94.6455 157.964 98.0379 162.53 96.6455 167.095C94.8986 172.371 90.367 176.099 86.1391 179.397C79.4809 177.799 72.5695 176.049 65.6834 177.038C61.886 177.723 57.5062 179.067 55.6075 182.719C52.6455 188.705 60.0632 189.872 64.367 189.745C72.4429 189.491 80.1391 186.169 86.5189 181.274C93.7594 183.176 100.924 183.886 107.987 180.893C111.177 179.422 114.797 177.799 116.519 174.527C117.051 173.538 115.481 172.726 114.975 173.715L115 173.766ZM64.1391 188.046C61.81 187.868 57.7088 188.198 56.7214 185.585C56.5695 182.288 60.2151 180.361 62.9493 179.524C69.9619 177.393 77.3543 179.168 84.291 180.792C78.4429 185.078 71.4303 187.843 64.1391 188.046Z" fill="#5534DA"/>
</g>
</g>
</g>
<defs>
<clipPath id="clip0_540_4803">
<rect width="164.557" height="189.796" fill="white" transform="translate(0.442993)"/>
</clipPath>
</defs>
</svg>
