<svg width="199" height="57" viewBox="0 0 199 57" fill="none" xmlns="http://www.w3.org/2000/svg">
<g id="Taskify">
<path d="M12.616 44.7818V13.0874H0.140015V5.72179H34.1147V13.0874H21.6387V44.7818H12.616Z" fill="#5534DA"/>
<path d="M53.9477 44.7818V38.9228L53.3908 37.6394V27.149C53.3908 25.289 52.8152 23.8382 51.6642 22.7966C50.5503 21.755 48.8237 21.2342 46.4844 21.2342C44.8878 21.2342 43.3098 21.4946 41.7503 22.0154C40.2279 22.499 38.9283 23.1686 37.8515 24.0242L34.7325 17.942C36.3663 16.7888 38.3342 15.896 40.6363 15.2636C42.9384 14.6312 45.2777 14.315 47.6541 14.315C52.2211 14.315 55.7671 15.3938 58.292 17.5514C60.8169 19.709 62.0794 23.0756 62.0794 27.6512V44.7818H53.9477ZM44.8136 45.2282C42.4743 45.2282 40.4692 44.8376 38.7984 44.0564C37.1275 43.238 35.8465 42.1406 34.9553 40.7642C34.0642 39.3878 33.6186 37.844 33.6186 36.1328C33.6186 34.3472 34.0456 32.7848 34.8996 31.4456C35.7908 30.1064 37.1832 29.0648 39.0768 28.3208C40.9705 27.5396 43.4397 27.149 46.4844 27.149H54.449V32.2268H47.4313C45.3891 32.2268 43.9781 32.5616 43.1984 33.2312C42.4557 33.9008 42.0844 34.7378 42.0844 35.7422C42.0844 36.8582 42.5114 37.751 43.3654 38.4206C44.2566 39.053 45.4633 39.3692 46.9857 39.3692C48.4338 39.3692 49.7334 39.0344 50.8844 38.3648C52.0355 37.658 52.8709 36.635 53.3908 35.2958L54.7275 39.3134C54.0963 41.2478 52.9452 42.7172 51.2743 43.7216C49.6034 44.726 47.4498 45.2282 44.8136 45.2282Z" fill="#5534DA"/>
<path d="M78.7582 45.2282C76.1961 45.2282 73.7269 44.9306 71.3506 44.3354C69.0113 43.703 67.1548 42.9218 65.781 41.9918L68.6772 35.7422C70.051 36.5978 71.6662 37.3046 73.5227 37.8626C75.4164 38.3834 77.2729 38.6438 79.0923 38.6438C81.0974 38.6438 82.5084 38.402 83.3253 37.9184C84.1793 37.4348 84.6063 36.7652 84.6063 35.9096C84.6063 35.2028 84.2721 34.682 83.6037 34.3472C82.9725 33.9752 82.1185 33.6962 81.0417 33.5102C79.9649 33.3242 78.7767 33.1382 77.4772 32.9522C76.2147 32.7662 74.9337 32.5244 73.6341 32.2268C72.3345 31.892 71.1464 31.4084 70.0696 30.776C68.9928 30.1436 68.1202 29.288 67.4518 28.2092C66.8206 27.1304 66.505 25.7354 66.505 24.0242C66.505 22.127 67.0434 20.453 68.1202 19.0022C69.2341 17.5514 70.8307 16.4168 72.9101 15.5984C74.9894 14.7428 77.4772 14.315 80.3734 14.315C82.4156 14.315 84.4949 14.5382 86.6113 14.9846C88.7278 15.431 90.4915 16.082 91.9025 16.9376L89.0063 23.1314C87.5582 22.2758 86.0915 21.6992 84.6063 21.4016C83.1582 21.0668 81.7472 20.8994 80.3734 20.8994C78.4426 20.8994 77.0316 21.1598 76.1404 21.6806C75.2493 22.2014 74.8037 22.871 74.8037 23.6894C74.8037 24.4334 75.1194 24.9914 75.7506 25.3634C76.4189 25.7354 77.2915 26.033 78.3683 26.2562C79.4451 26.4794 80.6147 26.684 81.8772 26.87C83.1767 27.0188 84.4763 27.2606 85.7759 27.5954C87.0755 27.9302 88.2451 28.4138 89.2847 29.0462C90.3615 29.6414 91.2341 30.4784 91.9025 31.5572C92.5708 32.5988 92.905 33.9752 92.905 35.6864C92.905 37.5464 92.348 39.2018 91.2341 40.6526C90.1202 42.0662 88.505 43.1822 86.3885 44.0006C84.3092 44.819 81.7658 45.2282 78.7582 45.2282Z" fill="#5534DA"/>
<path d="M104.185 38.6438L104.408 28.0418L118.387 14.7614H128.747L115.324 28.4324L110.813 32.1152L104.185 38.6438ZM96.9999 44.7818V3.37819H105.689V44.7818H96.9999ZM119.334 44.7818L109.197 32.171L114.656 25.4192L129.861 44.7818H119.334Z" fill="#5534DA"/>
<path d="M132.502 44.7818V14.7614H141.191V44.7818H132.502ZM136.847 10.5764C135.25 10.5764 133.95 10.1114 132.948 9.18139C131.945 8.25139 131.444 7.09819 131.444 5.72179C131.444 4.34539 131.945 3.19219 132.948 2.26219C133.95 1.33219 135.25 0.867188 136.847 0.867188C138.443 0.867188 139.743 1.31359 140.745 2.20639C141.748 3.06199 142.249 4.17799 142.249 5.55439C142.249 7.00519 141.748 8.21419 140.745 9.18139C139.78 10.1114 138.48 10.5764 136.847 10.5764Z" fill="#5534DA"/>
<path d="M149.047 44.7818V14.0918C149.047 10.7066 150.05 8.00959 152.055 6.00079C154.06 3.95479 156.919 2.93179 160.632 2.93179C161.894 2.93179 163.101 3.06199 164.252 3.32239C165.44 3.58279 166.443 3.99199 167.26 4.54999L164.976 10.8554C164.494 10.5206 163.955 10.2602 163.361 10.0742C162.767 9.88819 162.136 9.79519 161.467 9.79519C160.205 9.79519 159.221 10.1672 158.515 10.9112C157.847 11.618 157.513 12.6968 157.513 14.1476V16.9376L157.736 20.6762V44.7818H149.047ZM144.424 22.127V15.431H165.199V22.127H144.424Z" fill="#5534DA"/>
<path d="M172.593 56.0534C171.034 56.0534 169.493 55.8116 167.97 55.328C166.448 54.8444 165.204 54.1748 164.239 53.3192L167.413 47.1254C168.082 47.7206 168.843 48.1856 169.697 48.5204C170.588 48.8552 171.461 49.0226 172.315 49.0226C173.54 49.0226 174.505 48.725 175.211 48.1298C175.953 47.5718 176.622 46.6232 177.216 45.284L178.775 41.6012L179.444 40.6526L190.193 14.7614H198.548L185.013 46.6232C184.048 49.0412 182.934 50.9384 181.672 52.3148C180.446 53.6912 179.072 54.6584 177.55 55.2164C176.065 55.7744 174.412 56.0534 172.593 56.0534ZM177.717 45.9536L164.35 14.7614H173.317L183.677 39.8714L177.717 45.9536Z" fill="#5534DA"/>
</g>
</svg>
