<svg width="81" height="22" viewBox="0 0 81 22" fill="none" xmlns="http://www.w3.org/2000/svg">
<g id="Taskify">
<path d="M5.82731 17.5144V4.8794H0.796875V1.9431H14.4958V4.8794H9.46539V17.5144H5.82731Z" fill="#5534DA"/>
<path d="M22.4927 17.5144V15.1787L22.2681 14.6671V10.4851C22.2681 9.74357 22.0361 9.16521 21.572 8.74998C21.1228 8.33474 20.4266 8.12712 19.4834 8.12712C18.8397 8.12712 18.2034 8.23093 17.5746 8.43855C16.9607 8.63134 16.4367 8.89827 16.0026 9.23936L14.7449 6.81469C15.4037 6.35496 16.1972 5.99905 17.1254 5.74694C18.0537 5.49484 18.9969 5.36878 19.955 5.36878C21.7965 5.36878 23.2263 5.79885 24.2444 6.65897C25.2625 7.5191 25.7715 8.8612 25.7715 10.6853V17.5144H22.4927ZM18.8097 17.6923C17.8665 17.6923 17.058 17.5366 16.3843 17.2252C15.7106 16.8989 15.1941 16.4615 14.8348 15.9128C14.4755 15.3641 14.2958 14.7486 14.2958 14.0665C14.2958 13.3546 14.468 12.7318 14.8123 12.1979C15.1716 11.664 15.7331 11.2488 16.4966 10.9522C17.2602 10.6408 18.2558 10.4851 19.4834 10.4851H22.6948V12.5093H19.8652C19.0418 12.5093 18.4729 12.6428 18.1585 12.9097C17.859 13.1767 17.7093 13.5103 17.7093 13.9107C17.7093 14.3556 17.8815 14.7116 18.2258 14.9785C18.5851 15.2306 19.0717 15.3566 19.6856 15.3566C20.2694 15.3566 20.7934 15.2232 21.2576 14.9562C21.7217 14.6745 22.0585 14.2667 22.2681 13.7328L22.8071 15.3344C22.5526 16.1056 22.0885 16.6913 21.4148 17.0917C20.741 17.4921 19.8727 17.6923 18.8097 17.6923Z" fill="#5534DA"/>
<path d="M32.4965 17.6923C31.4635 17.6923 30.4679 17.5737 29.5097 17.3364C28.5665 17.0843 27.8179 16.7729 27.264 16.4021L28.4318 13.9107C28.9857 14.2518 29.637 14.5336 30.3856 14.756C31.1491 14.9637 31.8977 15.0675 32.6313 15.0675C33.4398 15.0675 34.0087 14.9711 34.338 14.7783C34.6824 14.5855 34.8546 14.3186 34.8546 13.9775C34.8546 13.6957 34.7198 13.4881 34.4503 13.3546C34.1958 13.2063 33.8515 13.0951 33.4173 13.021C32.9831 12.9468 32.504 12.8727 31.98 12.7985C31.471 12.7244 30.9545 12.628 30.4305 12.5093C29.9065 12.3759 29.4274 12.1831 28.9932 11.931C28.559 11.6789 28.2072 11.3378 27.9377 10.9077C27.6832 10.4776 27.5559 9.92153 27.5559 9.23936C27.5559 8.48304 27.773 7.8157 28.2072 7.23734C28.6564 6.65897 29.3001 6.20667 30.1385 5.88041C30.9769 5.53933 31.98 5.36878 33.1478 5.36878C33.9712 5.36878 34.8096 5.45776 35.663 5.63572C36.5164 5.81368 37.2276 6.0732 37.7965 6.41428L36.6287 8.88344C36.0448 8.54236 35.4534 8.3125 34.8546 8.19386C34.2707 8.06039 33.7018 7.99366 33.1478 7.99366C32.3693 7.99366 31.8004 8.09746 31.4411 8.30508C31.0817 8.5127 30.9021 8.77964 30.9021 9.10589C30.9021 9.40249 31.0293 9.62493 31.2839 9.77323C31.5533 9.92153 31.9052 10.0402 32.3393 10.1291C32.7735 10.2181 33.2451 10.2997 33.7542 10.3738C34.2782 10.4332 34.8022 10.5296 35.3262 10.663C35.8502 10.7965 36.3218 10.9893 36.741 11.2414C37.1751 11.4787 37.527 11.8123 37.7965 12.2424C38.066 12.6576 38.2007 13.2063 38.2007 13.8885C38.2007 14.63 37.9761 15.2899 37.527 15.8683C37.0778 16.4318 36.4266 16.8767 35.5732 17.203C34.7348 17.5292 33.7092 17.6923 32.4965 17.6923Z" fill="#5534DA"/>
<path d="M42.7488 15.0675L42.8386 10.841L48.4754 5.54674H52.6525L47.2403 10.9967L45.4212 12.4648L42.7488 15.0675ZM39.8518 17.5144V1.00882H43.3552V17.5144H39.8518ZM48.8572 17.5144L44.77 12.4871L46.9708 9.79548L53.1016 17.5144H48.8572Z" fill="#5534DA"/>
<path d="M54.1668 17.5144V5.54674H57.6701V17.5144H54.1668ZM55.9184 3.87839C55.2746 3.87839 54.7506 3.69302 54.3464 3.32227C53.9422 2.95153 53.7401 2.4918 53.7401 1.9431C53.7401 1.3944 53.9422 0.934675 54.3464 0.563931C54.7506 0.193185 55.2746 0.0078125 55.9184 0.0078125C56.5622 0.0078125 57.0862 0.18577 57.4904 0.541686C57.8947 0.882771 58.0968 1.32767 58.0968 1.87637C58.0968 2.45473 57.8947 2.9367 57.4904 3.32227C57.1012 3.69302 56.5772 3.87839 55.9184 3.87839Z" fill="#5534DA"/>
<path d="M60.8378 17.5144V5.2798C60.8378 3.93029 61.242 2.85513 62.0505 2.05432C62.8589 1.23869 64.0117 0.830866 65.5089 0.830866C66.0179 0.830866 66.5045 0.88277 66.9686 0.986579C67.4477 1.09039 67.852 1.25352 68.1813 1.47596L67.2606 3.98961C67.0659 3.85614 66.8489 3.75234 66.6093 3.67819C66.3698 3.60404 66.1152 3.56696 65.8458 3.56696C65.3367 3.56696 64.94 3.71526 64.6555 4.01186C64.386 4.29362 64.2513 4.72369 64.2513 5.30205V6.41428L64.3411 7.90468V17.5144H60.8378ZM58.9738 8.48304V5.81368H67.3504V8.48304H58.9738Z" fill="#5534DA"/>
<path d="M70.3318 22.0078C69.703 22.0078 69.0816 21.9114 68.4678 21.7186C67.854 21.5258 67.3524 21.2589 66.9632 20.9178L68.2432 18.4487C68.5127 18.6859 68.8196 18.8713 69.164 19.0048C69.5233 19.1382 69.8751 19.205 70.2195 19.205C70.7135 19.205 71.1028 19.0863 71.3873 18.8491C71.6867 18.6266 71.9562 18.2485 72.1957 17.7146L72.8245 16.2464L73.094 15.8683L77.4283 5.54674H80.7969L75.3397 18.2485C74.9505 19.2124 74.5013 19.9687 73.9923 20.5174C73.4983 21.0661 72.9443 21.4517 72.3305 21.6741C71.7316 21.8966 71.0654 22.0078 70.3318 22.0078ZM72.3978 17.9815L67.0081 5.54674H70.6237L74.8008 15.5569L72.3978 17.9815Z" fill="#5534DA"/>
</g>
</svg>
