<svg width="20" height="20" viewBox="0 0 20 20" fill="none" xmlns="http://www.w3.org/2000/svg">
<g id="add_box_FILL0_wght300_GRAD0_opsz24 1">
<path id="Vector" d="M9.37508 10.6243V13.3327C9.37508 13.51 9.43491 13.6585 9.55456 13.7782C9.67421 13.8978 9.82271 13.9576 10.0001 13.9576C10.1774 13.9576 10.3259 13.8978 10.4456 13.7782C10.5652 13.6585 10.625 13.51 10.625 13.3327V10.6243H13.3334C13.5107 10.6243 13.6592 10.5645 13.7789 10.4448C13.8985 10.3252 13.9584 10.1767 13.9584 9.99933C13.9584 9.82198 13.8985 9.67348 13.7789 9.55383C13.6592 9.43418 13.5107 9.37435 13.3334 9.37435H10.625V6.666C10.625 6.48865 10.5652 6.34015 10.4456 6.2205C10.3259 6.10084 10.1774 6.04102 10.0001 6.04102C9.82271 6.04102 9.67421 6.10084 9.55456 6.2205C9.43491 6.34015 9.37508 6.48865 9.37508 6.666V9.37435H6.66673C6.48938 9.37435 6.34088 9.43418 6.22123 9.55383C6.10157 9.67348 6.04175 9.82198 6.04175 9.99933C6.04175 10.1767 6.10157 10.3252 6.22123 10.4448C6.34088 10.5645 6.48938 10.6243 6.66673 10.6243H9.37508ZM4.42316 17.0826C4.00222 17.0826 3.64591 16.9368 3.35425 16.6451C3.06258 16.3535 2.91675 15.9972 2.91675 15.5762V4.42243C2.91675 4.00149 3.06258 3.64518 3.35425 3.35352C3.64591 3.06185 4.00222 2.91602 4.42316 2.91602H15.577C15.9979 2.91602 16.3542 3.06185 16.6459 3.35352C16.9375 3.64518 17.0834 4.00149 17.0834 4.42243V15.5762C17.0834 15.9972 16.9375 16.3535 16.6459 16.6451C16.3542 16.9368 15.9979 17.0826 15.577 17.0826H4.42316ZM4.42316 15.8327H15.577C15.6411 15.8327 15.6998 15.806 15.7533 15.7525C15.8067 15.6991 15.8334 15.6403 15.8334 15.5762V4.42243C15.8334 4.35832 15.8067 4.29955 15.7533 4.24612C15.6998 4.1927 15.6411 4.166 15.577 4.166H4.42316C4.35905 4.166 4.30028 4.1927 4.24685 4.24612C4.19344 4.29955 4.16673 4.35832 4.16673 4.42243V15.5762C4.16673 15.6403 4.19344 15.6991 4.24685 15.7525C4.30028 15.806 4.35905 15.8327 4.42316 15.8327Z" fill="#787486"/>
</g>
</svg>
