<svg width="16" height="16" viewBox="0 0 16 16" fill="none" xmlns="http://www.w3.org/2000/svg">
<g id="add_FILL0_wght500_GRAD0_opsz24 1">
<path id="Vector" d="M7.31099 8.68978H4.32417C4.13071 8.68978 3.96744 8.62325 3.83437 8.49017C3.7013 8.3571 3.63477 8.19384 3.63477 8.00039C3.63477 7.80693 3.7013 7.64367 3.83437 7.5106C3.96744 7.37753 4.13071 7.31099 4.32417 7.31099H7.31099V4.32417C7.31099 4.13071 7.37753 3.96744 7.5106 3.83437C7.64367 3.7013 7.80693 3.63477 8.00039 3.63477C8.19384 3.63477 8.3571 3.7013 8.49017 3.83437C8.62325 3.96744 8.68978 4.13071 8.68978 4.32417V7.31099H11.6766C11.8701 7.31099 12.0333 7.37753 12.1664 7.5106C12.2995 7.64367 12.366 7.80693 12.366 8.00039C12.366 8.19384 12.2995 8.3571 12.1664 8.49017C12.0333 8.62325 11.8701 8.68978 11.6766 8.68978H8.68978V11.6766C8.68978 11.8701 8.62325 12.0333 8.49017 12.1664C8.3571 12.2995 8.19384 12.366 8.00039 12.366C7.80693 12.366 7.64367 12.2995 7.5106 12.1664C7.37753 12.0333 7.31099 11.8701 7.31099 11.6766V8.68978Z" fill="#5534DA"/>
</g>
</svg>
