<svg xmlns="http://www.w3.org/2000/svg" width="26" height="26" viewBox="0 0 26 26" fill="none">
  <path d="M12.4806 15.3545L9.06692 11.9408C9.01983 11.8937 8.98275 11.8411 8.95566 11.7831C8.92858 11.725 8.91504 11.6628 8.91504 11.5964C8.91504 11.4636 8.95993 11.3483 9.0497 11.2504C9.13945 11.1525 9.25776 11.1035 9.40462 11.1035H16.5962C16.7431 11.1035 16.8614 11.1529 16.9512 11.2518C17.0409 11.3507 17.0858 11.466 17.0858 11.5978C17.0858 11.6308 17.0351 11.7452 16.9337 11.941L13.5202 15.3545C13.4417 15.433 13.3606 15.4903 13.2769 15.5264C13.1931 15.5625 13.1009 15.5806 13.0004 15.5806C12.8999 15.5806 12.8078 15.5625 12.724 15.5264C12.6402 15.4903 12.5591 15.433 12.4806 15.3545Z" fill="#333236"/>
</svg>