<svg width="24" height="24" viewBox="0 0 24 24" fill="none" xmlns="http://www.w3.org/2000/svg">
<path d="M10.4812 21.5C10.2568 21.5 10.0626 21.4246 9.89846 21.274C9.73436 21.1233 9.63565 20.9358 9.60231 20.7115L9.31194 18.4538C9.04399 18.3641 8.7693 18.2384 8.48789 18.0769C8.20647 17.9153 7.95486 17.7422 7.73306 17.5576L5.64461 18.4384C5.43051 18.532 5.21801 18.5429 5.00711 18.4711C4.79621 18.3993 4.6305 18.2647 4.50999 18.0673L3.00619 15.4481C2.89207 15.2506 2.85681 15.0397 2.90041 14.8154C2.944 14.591 3.05617 14.4102 3.23694 14.2731L5.04464 12.9058C5.02155 12.757 5.0052 12.6077 4.99559 12.4577C4.98597 12.3077 4.98116 12.1583 4.98116 12.0096C4.98116 11.8673 4.98597 11.7227 4.99559 11.5759C5.0052 11.4291 5.02155 11.2686 5.04464 11.0942L3.23694 9.72688C3.05617 9.58971 2.9424 9.40894 2.89561 9.18458C2.84881 8.96023 2.88567 8.74934 3.00619 8.5519L4.50999 5.95195C4.6305 5.75452 4.79461 5.6199 5.00231 5.5481C5.21 5.4763 5.42089 5.4872 5.63499 5.5808L7.72344 6.45195C7.96447 6.26092 8.22185 6.08623 8.49556 5.9279C8.7693 5.76955 9.03821 5.6423 9.30231 5.54615L9.60231 3.28848C9.63565 3.06411 9.73436 2.87661 9.89846 2.72598C10.0626 2.57533 10.2568 2.5 10.4812 2.5H13.51C13.7343 2.5 13.9301 2.57533 14.0974 2.72598C14.2648 2.87661 14.3651 3.06411 14.3984 3.28848L14.6888 5.55578C14.9888 5.66474 15.2603 5.79198 15.5032 5.9375C15.7462 6.08302 15.9914 6.2545 16.2388 6.45195L18.3657 5.5808C18.5798 5.4872 18.7907 5.4747 18.9984 5.5433C19.2061 5.61188 19.3702 5.74489 19.4907 5.94233L20.9945 8.5519C21.1151 8.74934 21.1519 8.96023 21.1051 9.18458C21.0583 9.40894 20.9446 9.58971 20.7638 9.72688L18.9176 11.123C18.9535 11.2846 18.9731 11.4355 18.9763 11.5759C18.9795 11.7163 18.9811 11.8577 18.9811 12C18.9811 12.1359 18.9779 12.274 18.9715 12.4144C18.9651 12.5548 18.942 12.7154 18.9022 12.8962L20.7292 14.2731C20.9099 14.4102 21.0237 14.591 21.0705 14.8154C21.1173 15.0397 21.0805 15.2506 20.9599 15.4481L19.4561 18.0519C19.3356 18.2493 19.1673 18.3849 18.9513 18.4586C18.7353 18.5323 18.5202 18.5224 18.3061 18.4288L16.2388 17.548C15.9914 17.7455 15.7388 17.9201 15.4811 18.0721C15.2234 18.224 14.9593 18.348 14.6888 18.4442L14.3984 20.7115C14.3651 20.9358 14.2648 21.1233 14.0974 21.274C13.9301 21.4246 13.7343 21.5 13.51 21.5H10.4812ZM11.0004 20H12.9657L13.3254 17.3211C13.8356 17.1878 14.302 16.9984 14.7244 16.7529C15.1468 16.5074 15.5542 16.1917 15.9465 15.8058L18.4311 16.85L19.4157 15.15L17.2465 13.5154C17.3298 13.2564 17.3866 13.0025 17.4167 12.7538C17.4468 12.5051 17.4619 12.2538 17.4619 12C17.4619 11.7397 17.4468 11.4884 17.4167 11.2461C17.3866 11.0038 17.3298 10.7564 17.2465 10.5038L19.435 8.84998L18.4504 7.14998L15.9369 8.2096C15.6023 7.8519 15.2013 7.53588 14.734 7.26153C14.2667 6.98716 13.7939 6.79293 13.3157 6.67883L13.0004 3.99998H11.0157L10.685 6.6692C10.1747 6.78972 9.70356 6.97433 9.27151 7.22305C8.83946 7.47177 8.42729 7.79228 8.03499 8.1846L5.55036 7.14998L4.56574 8.84998L6.72536 10.4596C6.64203 10.6968 6.5837 10.9436 6.55036 11.2C6.51703 11.4564 6.50036 11.7263 6.50036 12.0096C6.50036 12.2699 6.51703 12.525 6.55036 12.775C6.5837 13.025 6.63882 13.2718 6.71574 13.5154L4.56574 15.15L5.55036 16.85L8.02536 15.8C8.40485 16.1897 8.81061 16.509 9.24266 16.7577C9.67471 17.0064 10.1523 17.1974 10.6754 17.3308L11.0004 20ZM12.0119 15C12.8439 15 13.5519 14.708 14.1359 14.124C14.7199 13.54 15.0119 12.832 15.0119 12C15.0119 11.1679 14.7199 10.4599 14.1359 9.87595C13.5519 9.29198 12.8439 9 12.0119 9C11.1696 9 10.459 9.29198 9.88019 9.87595C9.30135 10.4599 9.01194 11.1679 9.01194 12C9.01194 12.832 9.30135 13.54 9.88019 14.124C10.459 14.708 11.1696 15 12.0119 15Z" fill="#787486"/>
</svg>
