<svg xmlns="http://www.w3.org/2000/svg" width="24" height="24" viewBox="0 0 24 24" fill="none">
  <path d="M4.75383 20.1077C4.50954 20.1077 4.30476 20.025 4.13951 19.8598C3.97424 19.6945 3.8916 19.4897 3.8916 19.2455V17.5926C3.8916 17.36 3.93625 17.1382 4.02554 16.9274C4.11481 16.7166 4.23772 16.5329 4.39426 16.3763L16.4745 4.30156C16.6188 4.17054 16.7781 4.06929 16.9524 3.99782C17.1267 3.92636 17.3095 3.89062 17.5007 3.89062C17.692 3.89062 17.8773 3.92457 18.0566 3.99246C18.2359 4.06033 18.3946 4.16826 18.5328 4.31623L19.6977 5.49581C19.8457 5.634 19.9512 5.79303 20.0142 5.97288C20.0772 6.15271 20.1087 6.33255 20.1087 6.51238C20.1087 6.70421 20.0759 6.88727 20.0104 7.06157C19.9449 7.23589 19.8407 7.39517 19.6977 7.53943L7.62294 19.605C7.4664 19.7616 7.28272 19.8845 7.07189 19.9738C6.86106 20.063 6.63932 20.1077 6.40668 20.1077H4.75383ZM17.2964 7.89167L18.6778 6.51944L17.4798 5.32152L16.1076 6.70291L17.2964 7.89167Z" fill="white"/>
</svg>