<svg width="20" height="20" viewBox="0 0 20 20" fill="none" xmlns="http://www.w3.org/2000/svg">
<g id="more_vert_FILL0_wght300_GRAD0_opsz24">
<path id="Vector" d="M9.99998 16.0567C9.65624 16.0567 9.36198 15.9343 9.11719 15.6895C8.8724 15.4447 8.75 15.1505 8.75 14.8067C8.75 14.463 8.8724 14.1687 9.11719 13.9239C9.36198 13.6792 9.65624 13.5568 9.99998 13.5568C10.3437 13.5568 10.638 13.6792 10.8828 13.9239C11.1276 14.1687 11.25 14.463 11.25 14.8067C11.25 15.1505 11.1276 15.4447 10.8828 15.6895C10.638 15.9343 10.3437 16.0567 9.99998 16.0567ZM9.99998 11.249C9.65624 11.249 9.36198 11.1266 9.11719 10.8818C8.8724 10.6371 8.75 10.3428 8.75 9.99905C8.75 9.65532 8.8724 9.36105 9.11719 9.11626C9.36198 8.87147 9.65624 8.74907 9.99998 8.74907C10.3437 8.74907 10.638 8.87147 10.8828 9.11626C11.1276 9.36105 11.25 9.65532 11.25 9.99905C11.25 10.3428 11.1276 10.6371 10.8828 10.8818C10.638 11.1266 10.3437 11.249 9.99998 11.249ZM9.99998 6.44134C9.65624 6.44134 9.36198 6.31895 9.11719 6.07416C8.8724 5.82938 8.75 5.53512 8.75 5.19137C8.75 4.84763 8.8724 4.55337 9.11719 4.30857C9.36198 4.0638 9.65624 3.94141 9.99998 3.94141C10.3437 3.94141 10.638 4.0638 10.8828 4.30857C11.1276 4.55337 11.25 4.84763 11.25 5.19137C11.25 5.53512 11.1276 5.82938 10.8828 6.07416C10.638 6.31895 10.3437 6.44134 9.99998 6.44134Z" fill="black"/>
</g>
</svg>
