<svg width="120" height="35" viewBox="0 0 120 35" fill="none" xmlns="http://www.w3.org/2000/svg">
<g id="Taskify">
<path d="M8.16916 27.2692V8.25253H0.683594V3.83317H21.0684V8.25253H13.5828V27.2692H8.16916Z" fill="#5534DA"/>
<path d="M32.9682 27.2692V23.7538L32.634 22.9837V16.6895C32.634 15.5735 32.2887 14.703 31.5981 14.0781C30.9297 13.4531 29.8938 13.1406 28.4902 13.1406C27.5323 13.1406 26.5854 13.2969 25.6497 13.6093C24.7363 13.8995 23.9566 14.3013 23.3105 14.8146L21.4391 11.1653C22.4194 10.4734 23.6001 9.93769 24.9814 9.55825C26.3627 9.17881 27.7662 8.98909 29.192 8.98909C31.9323 8.98909 34.0599 9.63637 35.5748 10.9309C37.0897 12.2255 37.8472 14.2455 37.8472 16.9908V27.2692H32.9682ZM27.4877 27.537C26.0842 27.537 24.8811 27.3027 23.8786 26.8339C22.8761 26.3429 22.1075 25.6845 21.5728 24.8586C21.0381 24.0328 20.7708 23.1065 20.7708 22.0798C20.7708 21.0084 21.027 20.071 21.5394 19.2675C22.074 18.4639 22.9095 17.839 24.0457 17.3926C25.1819 16.9239 26.6634 16.6895 28.4902 16.6895H33.269V19.7362H29.0584C27.833 19.7362 26.9865 19.9371 26.5186 20.3388C26.073 20.7406 25.8503 21.2428 25.8503 21.8454C25.8503 22.515 26.1065 23.0507 26.6189 23.4525C27.1535 23.8319 27.8776 24.0216 28.791 24.0216C29.6599 24.0216 30.4396 23.8207 31.1303 23.419C31.8209 22.9949 32.3221 22.3811 32.634 21.5776L33.4361 23.9881C33.0573 25.1488 32.3667 26.0304 31.3642 26.6331C30.3616 27.2357 29.0695 27.537 27.4877 27.537Z" fill="#5534DA"/>
<path d="M47.8545 27.537C46.3173 27.537 44.8358 27.3585 43.4099 27.0013C42.0064 26.6219 40.8925 26.1532 40.0682 25.5952L41.8059 21.8454C42.6302 22.3588 43.5993 22.7829 44.7132 23.1177C45.8494 23.4301 46.9634 23.5864 48.055 23.5864C49.258 23.5864 50.1046 23.4413 50.5947 23.1511C51.1071 22.861 51.3633 22.4592 51.3633 21.9459C51.3633 21.5218 51.1628 21.2093 50.7618 21.0084C50.3831 20.7852 49.8707 20.6178 49.2246 20.5062C48.5785 20.3946 47.8656 20.283 47.0859 20.1714C46.3284 20.0598 45.5598 19.9147 44.7801 19.7362C44.0003 19.5353 43.2874 19.2451 42.6413 18.8657C41.9953 18.4863 41.4717 17.9729 41.0707 17.3256C40.692 16.6783 40.5026 15.8413 40.5026 14.8146C40.5026 13.6763 40.8256 12.6719 41.4717 11.8014C42.1401 10.9309 43.098 10.2502 44.3456 9.75913C45.5932 9.24577 47.0859 8.98909 48.8236 8.98909C50.0489 8.98909 51.2965 9.12301 52.5664 9.39085C53.8363 9.65869 54.8945 10.0493 55.7411 10.5627L54.0033 14.2789C53.1345 13.7656 52.2545 13.4196 51.3633 13.2411C50.4945 13.0402 49.6479 12.9397 48.8236 12.9397C47.6651 12.9397 46.8185 13.096 46.2839 13.4085C45.7492 13.7209 45.4818 14.1227 45.4818 14.6137C45.4818 15.0601 45.6712 15.3949 46.0499 15.6181C46.4509 15.8413 46.9745 16.0199 47.6206 16.1538C48.2666 16.2877 48.9684 16.4105 49.7259 16.5221C50.5056 16.6114 51.2854 16.7565 52.0651 16.9573C52.8449 17.1582 53.5466 17.4484 54.1704 17.8278C54.8165 18.1849 55.3401 18.6871 55.7411 19.3344C56.1421 19.9594 56.3426 20.7852 56.3426 21.8119C56.3426 22.9279 56.0084 23.9212 55.3401 24.7917C54.6717 25.6398 53.7026 26.3094 52.4327 26.8005C51.1851 27.2915 49.659 27.537 47.8545 27.537Z" fill="#5534DA"/>
<path d="M63.1104 23.5864L63.2441 17.2252L71.632 9.25693H77.8477L69.794 17.4595L67.0871 19.6692L63.1104 23.5864ZM58.7996 27.2692V2.42701H64.0127V27.2692H58.7996ZM72.2001 27.2692L66.118 19.7027L69.393 15.6516L78.516 27.2692H72.2001Z" fill="#5534DA"/>
<path d="M80.101 27.2692V9.25693H85.3141V27.2692H80.101ZM82.7076 6.74593C81.7496 6.74593 80.9698 6.46693 80.3683 5.90893C79.7668 5.35093 79.466 4.65901 79.466 3.83317C79.466 3.00733 79.7668 2.31541 80.3683 1.75741C80.9698 1.19941 81.7496 0.92041 82.7076 0.92041C83.6655 0.92041 84.4453 1.18825 85.0468 1.72393C85.6483 2.23729 85.9491 2.90689 85.9491 3.73273C85.9491 4.60321 85.6483 5.32861 85.0468 5.90893C84.4676 6.46693 83.6878 6.74593 82.7076 6.74593Z" fill="#5534DA"/>
<path d="M90.0278 27.2692V8.85517C90.0278 6.82405 90.6294 5.20585 91.8324 4.00057C93.0354 2.77297 94.7509 2.15917 96.9787 2.15917C97.7362 2.15917 98.4603 2.23729 99.1509 2.39353C99.8638 2.54977 100.465 2.79529 100.955 3.13009L99.5853 6.91333C99.2957 6.71245 98.9727 6.55621 98.6162 6.44461C98.2597 6.33301 97.881 6.27721 97.48 6.27721C96.7225 6.27721 96.1321 6.50041 95.7089 6.94681C95.3078 7.37089 95.1073 8.01817 95.1073 8.88865V10.5627L95.241 12.8058V27.2692H90.0278ZM87.2542 13.6763V9.65869H99.719V13.6763H87.2542Z" fill="#5534DA"/>
<path d="M104.155 34.0321C103.22 34.0321 102.295 33.8871 101.382 33.5969C100.468 33.3067 99.722 32.905 99.1428 32.3916L101.048 28.6753C101.449 29.0325 101.905 29.3115 102.418 29.5123C102.952 29.7132 103.476 29.8137 103.988 29.8137C104.724 29.8137 105.303 29.6351 105.726 29.278C106.172 28.9432 106.573 28.374 106.929 27.5705L107.865 25.3608L108.266 24.7917L114.715 9.25693H119.728L111.608 28.374C111.028 29.8248 110.36 30.9631 109.603 31.789C108.867 32.6148 108.043 33.1951 107.13 33.5299C106.238 33.8647 105.247 34.0321 104.155 34.0321ZM107.23 27.9723L99.2096 9.25693H104.59L110.806 24.3229L107.23 27.9723Z" fill="#5534DA"/>
</g>
</svg>
