<svg width="99" height="114" viewBox="0 0 99 114" fill="none" xmlns="http://www.w3.org/2000/svg">
<g id="&#225;&#132;&#140;&#225;&#133;&#161;&#225;&#132;&#137;&#225;&#133;&#161;&#225;&#134;&#171; 1 1" clip-path="url(#clip0_12647_4336)">
<g id="Objects">
<g id="Group">
<path id="Vector" d="M98.9841 8.72026C98.9385 8.62895 98.8322 8.56807 98.7258 8.59851C97.7992 8.99418 96.8727 9.32898 95.9157 9.679C93.2879 10.653 90.5537 11.2921 87.8195 11.9313C84.6904 12.6313 81.5005 13.1335 78.3866 13.9097C75.698 14.564 73.0246 15.3554 70.4423 16.3902C68.498 17.1511 66.5841 17.9729 64.7917 19.023C62.6651 20.1948 60.9486 21.9449 59.2777 23.6797C57.7436 25.2929 56.1942 26.906 54.8423 28.6865C54.0828 29.6909 53.4448 30.7866 52.8372 31.8823C53.7942 28.2604 55.1309 24.608 57.5765 21.7166C57.7587 21.4883 57.5461 21.2144 57.2879 21.3361C56.6651 21.6405 56.0879 22.0362 55.4955 22.4014C50.9689 25.4755 46.9284 29.2952 43.4499 33.5107C41.7486 35.5956 40.1081 37.7261 38.7562 40.0545C37.1917 42.7785 36.0068 45.7156 35.1562 48.7441C35.0651 46.9483 35.217 45.1526 35.46 43.3721C35.5056 43.0525 35.5512 42.7481 35.5663 42.4285C35.5663 42.2155 35.6271 41.9111 35.4144 41.7894C35.2625 41.7133 35.1106 41.7894 35.0043 41.9111C34.8676 42.0481 34.7613 42.2003 34.6398 42.3524C34.3967 42.672 34.1537 43.0068 33.9258 43.3416C33.1663 44.4221 32.4828 45.5635 31.8904 46.7505C30.4322 49.7485 29.0955 52.7769 27.7436 55.8205C26.3765 58.8642 25.1157 61.9687 23.7942 65.0275C22.5334 67.919 21.1512 70.7648 19.7233 73.5801C18.9486 75.0867 18.1587 76.5933 17.2322 78.0238C16.8372 78.6326 16.4271 79.2261 16.0018 79.8044C16.0625 79.6826 16.1233 79.5761 16.1841 79.4544C17.4296 77.0042 18.2803 74.3867 19.055 71.754C19.6929 70.0647 20.3309 68.3755 21.0448 66.732C21.8803 64.8601 22.6246 62.9579 23.3385 61.0404C24.7663 57.4184 26.498 53.9487 28.4727 50.5855C29.7486 48.4093 31.1157 46.2787 32.3613 44.0721C33.5309 42.0024 34.4575 39.811 35.5208 37.6957C36.3106 36.113 37.1157 34.5303 37.7993 32.9019C37.9967 32.4454 38.1942 31.9736 38.3765 31.5019C38.4524 31.2736 38.5436 31.0301 38.5891 30.7866C38.5891 30.6953 38.6043 30.5888 38.5436 30.4975C38.4068 30.2844 38.1334 30.3605 37.9663 30.4975C37.4803 30.8627 37.0246 31.2432 36.5537 31.6388C35.0347 32.9324 33.455 34.1498 31.8296 35.3064C35.3081 31.0758 39.0144 26.7538 40.6853 21.4274C40.8069 20.9709 41.141 19.8295 40.8069 19.4491C40.579 19.2512 40.3208 19.5252 40.1841 19.6926C38.7714 21.4579 37.2828 23.1623 35.6271 24.6993C36.2651 23.6949 36.8727 22.6601 37.4195 21.5948C38.3309 19.7687 39.2271 17.9273 39.9714 16.025C40.8524 13.6966 41.5208 11.3073 42.2195 8.93331C42.9334 6.34622 43.5714 3.72869 44.3461 1.15682C44.422 0.91333 44.498 0.669839 44.5436 0.41113C44.5436 0.335039 44.5739 0.24373 44.5436 0.167639C44.498 0.0306752 44.3309 -0.0606339 44.1942 -0.0149794C44.0727 0.015457 43.9512 0.0915479 43.8448 0.182857C42.2955 1.6438 40.9132 3.27215 39.4246 4.77875C38.3309 5.90489 37.222 7.04626 36.1739 8.21806C34.0625 10.6225 32.179 13.2401 30.6904 16.0706C29.3385 18.6425 28.3512 21.4274 27.7436 24.2732C26.9233 27.9865 26.6499 31.791 26.1334 35.5499C25.541 33.9216 25.1917 32.2019 25.1157 30.4518C25.0853 29.8735 25.0549 29.2648 25.0246 28.6409C25.0246 28.3517 25.0246 27.7278 24.5841 27.8647C24.4474 27.9408 24.3714 28.093 24.2955 28.2452C24.1587 28.5191 24.0372 28.8083 23.9157 29.0974C23.536 29.9801 23.1106 30.8323 22.7157 31.6997C21.5917 34.1346 20.6195 36.6608 20.1182 39.2936C19.6777 41.4546 19.4499 43.6612 19.4499 45.8526C19.4499 48.9267 19.9208 51.9551 19.9056 55.0444C19.0701 53.69 18.2195 52.3203 17.8701 50.7377C17.6879 49.992 17.5512 49.2463 17.4296 48.5006C17.3993 48.2875 17.3537 48.0593 17.3233 47.8462C17.2929 47.694 17.2929 47.4962 17.1714 47.3897C16.898 47.1766 16.7157 47.5418 16.655 47.7701C16.1385 49.4137 15.8803 51.1485 15.8195 52.8834C15.7436 54.6335 15.9106 56.3836 16.0777 58.1337C16.2296 59.7164 16.3967 61.2991 16.5031 62.897C16.4271 63.4753 16.3967 64.0536 16.3512 64.6319C16.1689 67.4777 15.8499 70.3234 15.3031 73.1236C14.9385 75.3759 14.4676 77.5977 13.6777 79.7587C13.222 81.2958 12.6296 82.7871 11.8853 84.2024C11.7638 84.4003 11.6575 84.6133 11.5512 84.8112C10.0777 87.4439 8.72584 90.1375 7.23723 92.7551C6.34103 94.2921 5.4752 95.8596 4.67014 97.4575C4.07774 98.4923 3.5309 99.5424 3.06001 100.623C2.64989 101.536 2.25495 102.464 1.89039 103.393C1.75369 103.788 1.35875 104.58 1.57141 104.975C1.89039 105.264 2.14862 104.884 2.34609 104.473C2.39166 104.427 2.43723 104.382 2.46761 104.336C2.58913 104.169 2.69546 104.001 2.7866 103.819C3.02963 103.408 3.27267 103.012 3.50052 102.616C4.50305 100.866 5.4752 99.101 6.46255 97.3357C7.93596 94.5964 9.54609 91.9333 11.1714 89.2701C11.4448 88.8288 11.7031 88.3874 11.9765 87.9309C12.3106 87.4439 12.6448 86.9721 12.9942 86.4852C13.617 85.6329 14.2853 84.8112 15.0144 84.0502C15.9106 83.0611 17.0347 82.1023 18.0828 81.2653C19.6018 80.0327 20.9689 78.6326 22.3056 77.2173C25.4195 73.8236 28.3512 70.2626 31.3891 66.7928C33.4094 64.3579 35.5815 62.0143 37.9056 59.8838C39.622 58.438 41.3993 57.0532 43.2068 55.7292C46.0929 53.6595 49.1309 51.8181 52.0018 49.718C55.3891 47.2375 58.7005 44.6504 61.7385 41.7437C61.8296 41.6372 61.936 41.5154 61.8752 41.3633C61.8144 41.1654 61.5714 41.1959 61.4043 41.2415C60.7208 41.4241 60.0676 41.6981 59.3993 41.8655C58.7157 42.0176 58.017 42.1546 57.3334 42.2763C55.4651 42.6416 53.5512 42.7938 51.6524 42.809C52.7309 42.3981 53.8246 42.0024 54.9182 41.6372C57.6372 40.8154 60.3866 40.1154 63.0448 39.111C67.7689 37.4826 71.9005 34.5607 75.6828 31.3497C76.6094 30.5736 77.5511 29.7974 78.4018 28.93C78.5537 28.7474 78.7815 28.58 78.8119 28.3213C78.8119 28.0169 78.4473 28.0169 78.2195 28.0778C76.0929 28.5343 73.9511 28.9757 71.7942 29.2039C70.3663 29.3409 68.8777 29.4474 67.4499 29.1887C69.1056 28.6865 70.7765 28.2452 72.4777 27.8952C74.0575 27.5756 75.6524 27.2712 77.1866 26.7995C79.5714 26.0994 81.7132 24.7298 83.536 23.0558C84.6296 22.0057 85.6474 20.8796 86.6499 19.7382C87.7132 18.5208 88.6701 17.212 89.7942 16.0402C91.2676 14.4879 92.8777 13.0727 94.5942 11.8095C95.8701 10.8051 97.2372 9.95293 98.6499 9.14637C98.7562 9.08549 98.8625 9.05506 98.9689 8.99418C99.06 8.93331 99.0904 8.82678 99.0448 8.72026H98.9841ZM15.9714 81.0218C15.9714 81.0218 15.9714 81.0218 15.941 81.0218H15.9562H15.9714ZM19.6018 64.6623C20.7714 60.8273 21.8955 56.9771 23.1106 53.1573C24.2499 49.2463 25.3891 45.3352 26.5891 41.4546C27.9258 36.8587 28.9891 32.1867 30.4018 27.606C31.4043 24.3798 32.5284 21.1839 33.7891 18.049C34.9284 15.2184 36.2043 12.4335 37.936 9.90727C36.5233 13.2705 35.0651 16.6033 33.8347 20.0274C32.6499 23.0253 31.6474 26.0842 30.7815 29.1887C28.6701 36.0521 27.3942 43.1438 25.3587 50.0224C24.4929 53.066 23.5208 56.0792 22.4727 59.0772C21.7284 61.223 20.8474 63.3687 20.1182 65.5145C18.4929 70.2778 16.9891 75.0867 15.136 79.7739C15.1056 79.8044 15.0752 79.8348 15.0448 79.8652C14.9841 79.85 14.9233 79.8652 14.8777 79.8805C15.1967 78.8761 15.5005 77.8565 15.7587 76.8368C16.9891 72.7584 18.341 68.7255 19.6018 64.6623ZM65.2625 27.256C63.5005 28.4735 61.7385 29.6909 60.0676 31.0149C57.2879 33.2367 54.5841 35.5347 51.8955 37.8631C50.3309 39.2631 48.9182 40.8306 47.4448 42.3372C45.9866 43.859 44.5132 45.3504 43.1309 46.9331C41.2929 48.9876 39.4094 51.0116 37.6474 53.1421C36.098 54.9683 34.6853 56.9162 33.2879 58.8642C32.2549 60.249 31.2068 61.6339 30.2347 63.0644C29.0803 64.7232 27.8803 66.3363 26.7258 67.9951C25.5714 69.6691 24.4322 71.3431 23.3081 73.0323C22.5942 74.0976 21.8803 75.178 21.0448 76.1672C20.0575 77.339 19.0398 78.5717 17.9157 79.6522C17.4904 80.0326 17.0803 80.4131 16.6701 80.8088C16.6701 80.8088 16.6701 80.8088 16.655 80.8088C16.4575 80.7631 16.4575 80.5805 16.5031 80.4283C17.3081 79.5304 18.1132 78.6478 18.9031 77.7347C19.86 76.6238 20.7258 75.4368 21.5309 74.2193C25.8144 67.9494 30.1436 61.6947 34.7461 55.6379C36.4625 53.4008 38.2398 51.1942 40.1537 49.1245C43.4499 45.6243 46.8524 42.2459 50.2549 38.837C54.6448 34.4542 59.3233 30.3453 64.4119 26.7995C68.4676 24.0602 72.7815 21.7166 77.2322 19.6926C73.0701 21.9296 69.1815 24.6537 65.2625 27.2712V27.256Z" fill="#5534DA"/>
<path id="Vector_2" d="M68.9991 104.26C68.8776 104.519 68.7105 104.747 68.5282 104.96C66.6143 106.954 63.789 107.989 61.1156 108.521C58.4118 109.084 55.632 108.567 52.989 107.973C55.6169 105.797 58.5637 103.256 59.1561 99.7099C59.7333 95.464 55.7384 92.7095 51.8953 92.5269C39.0447 92.1008 27.4396 99.0859 16.5485 105.128C12.4169 107.395 7.81432 110.302 2.908 109.16C2.22445 108.963 1.52572 108.521 1.31306 107.791C1.32825 107.593 1.23711 107.365 1.03964 107.273C-0.479346 106.969 0.599135 109.115 1.29787 109.495C7.32825 112.95 15.7131 106.543 21.0447 103.773C26.5434 100.76 32.2245 97.7163 38.2093 95.7531C43.1763 94.277 49.0548 92.6334 54.1738 94.0183C56.7865 94.7792 58.8219 97.5184 57.9865 100.258C56.9384 103.423 54.2194 105.66 51.6827 107.639C47.6877 106.68 43.5409 105.63 39.4093 106.223C37.1308 106.634 34.5029 107.441 33.3637 109.632C31.5865 113.224 36.0371 113.924 38.6194 113.848C43.465 113.695 48.0827 111.702 51.9105 108.765C56.2548 109.906 60.5536 110.332 64.7915 108.536C66.7055 107.654 68.8776 106.68 69.9105 104.717C70.2295 104.123 69.2877 103.636 68.9839 104.23L68.9991 104.26ZM38.4827 112.828C37.0852 112.721 34.6245 112.919 34.032 111.352C33.9409 109.373 36.1283 108.217 37.7688 107.715C41.9764 106.436 46.4118 107.502 50.5738 108.476C47.065 111.047 42.8574 112.706 38.4827 112.828Z" fill="#5534DA"/>
</g>
</g>
</g>
<defs>
<clipPath id="clip0_12647_4336">
<rect width="98.7342" height="113.878" fill="white" transform="translate(0.265625)"/>
</clipPath>
</defs>
</svg>
