<svg width="200" height="279" viewBox="0 0 200 279" fill="none" xmlns="http://www.w3.org/2000/svg">
<g clip-path="url(#clip0_540_4817)">
<path d="M199.975 14.5336C199.899 14.3814 199.721 14.28 199.544 14.3307C198 14.9901 196.456 15.5481 194.861 16.1315C190.481 17.7548 185.924 18.8201 181.367 19.8853C176.152 21.0521 170.835 21.8891 165.646 23.1826C161.164 24.2732 156.709 25.5921 152.405 27.3169C149.164 28.5851 145.975 29.9547 142.987 31.7048C139.443 33.6578 136.582 36.5746 133.797 39.4661C131.24 42.1546 128.658 44.8431 126.405 47.8107C125.139 49.4847 124.076 51.3109 123.063 53.1371C124.658 47.1005 126.886 41.0132 130.962 36.1941C131.266 35.8137 130.911 35.3571 130.481 35.5601C129.443 36.0673 128.481 36.7268 127.494 37.3355C119.949 42.459 113.215 48.8252 107.418 55.851C104.582 59.3258 101.848 62.8767 99.5949 66.7573C96.9873 71.2974 95.0126 76.1926 93.5949 81.24C93.443 78.247 93.6961 75.2541 94.1012 72.2866C94.1772 71.754 94.2531 71.2467 94.2784 70.7141C94.2784 70.359 94.3797 69.8517 94.0253 69.6488C93.7721 69.522 93.5189 69.6488 93.3417 69.8517C93.1139 70.08 92.9366 70.3336 92.7341 70.5872C92.329 71.1199 91.924 71.6779 91.5442 72.2359C90.2784 74.0367 89.1392 75.939 88.1518 77.9173C85.7215 82.914 83.4936 87.9613 81.2404 93.034C78.962 98.1068 76.8607 103.281 74.6582 108.379C72.5569 113.198 70.2531 117.941 67.8734 122.633C66.5822 125.144 65.2658 127.655 63.7215 130.04C63.0632 131.054 62.3797 132.043 61.6708 133.007C61.7721 132.804 61.8734 132.627 61.9746 132.424C64.0506 128.34 65.4683 123.978 66.7594 119.59C67.8227 116.774 68.886 113.959 70.0759 111.22C71.4683 108.1 72.7088 104.93 73.8987 101.734C76.2784 95.6972 79.1645 89.9143 82.4556 84.309C84.5822 80.682 86.8607 77.1311 88.9366 73.4533C90.886 70.0039 92.4303 66.3515 94.2025 62.826C95.5189 60.1881 96.8607 57.5503 97.9999 54.8364C98.329 54.0755 98.6582 53.2892 98.962 52.503C99.0885 52.1225 99.2404 51.7167 99.3164 51.3109C99.3164 51.1587 99.3417 50.9811 99.2404 50.829C99.0126 50.4739 98.5569 50.6007 98.2784 50.829C97.4683 51.4377 96.7088 52.0718 95.924 52.7312C93.3923 54.8871 90.7594 56.9162 88.0506 58.8439C93.848 51.7928 100.025 44.5895 102.81 35.7122C103.013 34.9513 103.57 33.0491 103.013 32.415C102.633 32.0852 102.202 32.5418 101.975 32.8208C99.6202 35.763 97.1392 38.6037 94.3797 41.1654C95.443 39.4914 96.4556 37.7667 97.367 35.9912C98.886 32.9476 100.38 29.8786 101.62 26.7081C103.089 22.8275 104.202 18.8454 105.367 14.8887C106.557 10.5769 107.62 6.21433 108.911 1.92787C109.038 1.52205 109.164 1.11624 109.24 0.685053C109.24 0.558235 109.291 0.406053 109.24 0.279235C109.164 0.0509625 108.886 -0.101219 108.658 -0.0251284C108.456 0.0255989 108.253 0.152417 108.076 0.304599C105.494 2.73951 103.19 5.45342 100.709 7.96442C98.886 9.84133 97.0379 11.7436 95.2911 13.6966C91.7721 17.7041 88.6329 22.0666 86.1518 26.7842C83.8987 31.0707 82.2531 35.7122 81.2404 40.4552C79.8734 46.644 79.4177 52.9849 78.5569 59.2497C77.5696 56.5358 76.9873 53.6697 76.8607 50.7529C76.8101 49.7891 76.7594 48.7745 76.7088 47.7346C76.7088 47.2527 76.7088 46.2128 75.9746 46.4411C75.7468 46.5679 75.6202 46.8215 75.4936 47.0751C75.2658 47.5317 75.0632 48.0136 74.8607 48.4955C74.2278 49.9666 73.5189 51.387 72.8607 52.8327C70.9873 56.8909 69.367 61.1012 68.5316 65.4891C67.7974 69.0908 67.4177 72.7685 67.4177 76.4209C67.4177 81.5443 68.2025 86.5917 68.1772 91.7405C66.7847 89.4831 65.367 87.2004 64.7847 84.5626C64.4809 83.3198 64.2531 82.077 64.0506 80.8341C63.9999 80.479 63.924 80.0986 63.8734 79.7435C63.8227 79.4899 63.8227 79.1601 63.6202 78.9826C63.1645 78.6275 62.8607 79.2362 62.7594 79.6167C61.8987 82.356 61.4683 85.2474 61.367 88.1389C61.2404 91.0557 61.5189 93.9725 61.7974 96.8893C62.0506 99.5271 62.3291 102.165 62.5063 104.828C62.3797 105.792 62.3291 106.756 62.2531 107.72C61.9493 112.463 61.4177 117.206 60.5063 121.873C59.8987 125.626 59.1139 129.329 57.7974 132.931C57.0379 135.493 56.0506 137.978 54.8101 140.337C54.6075 140.667 54.4303 141.022 54.2531 141.352C51.7974 145.74 49.5442 150.229 47.0632 154.592C45.5696 157.153 44.1265 159.766 42.7847 162.429C41.7974 164.154 40.886 165.904 40.1012 167.705C39.4177 169.226 38.7594 170.774 38.1518 172.321C37.924 172.98 37.2658 174.299 37.6202 174.959C38.1518 175.441 38.5822 174.806 38.9113 174.122C38.9873 174.046 39.0632 173.969 39.1139 173.893C39.3164 173.614 39.4936 173.335 39.6455 173.031C40.0506 172.346 40.4556 171.687 40.8354 171.027C42.5063 168.11 44.1265 165.168 45.7721 162.226C48.2278 157.661 50.9113 153.222 53.6202 148.783C54.0759 148.048 54.5063 147.312 54.962 146.551C55.5189 145.74 56.0759 144.953 56.6582 144.142C57.6961 142.721 58.8101 141.352 60.0253 140.084C61.5189 138.435 63.3923 136.837 65.1392 135.442C67.6708 133.388 69.9493 131.054 72.1772 128.695C77.367 123.039 82.2531 117.104 87.3164 111.321C90.6835 107.263 94.3037 103.357 98.1772 99.8061C101.038 97.3966 104 95.0885 107.013 92.8819C111.823 89.4324 116.886 86.3634 121.671 82.8632C127.316 78.729 132.835 74.4171 137.899 69.5727C138.051 69.3951 138.228 69.1922 138.127 68.9386C138.025 68.6089 137.62 68.6596 137.342 68.7357C136.202 69.0401 135.114 69.4966 134 69.7756C132.861 70.0292 131.696 70.2575 130.557 70.4604C127.443 71.0691 124.253 71.3228 121.089 71.3481C122.886 70.6633 124.709 70.0039 126.532 69.3951C131.063 68.0255 135.646 66.8588 140.076 65.1848C147.949 62.4709 154.835 57.6011 161.139 52.2493C162.683 50.9558 164.253 49.6622 165.671 48.2165C165.924 47.9121 166.304 47.6331 166.354 47.202C166.354 46.6947 165.747 46.6947 165.367 46.7961C161.823 47.5571 158.253 48.2926 154.658 48.6731C152.278 48.9013 149.797 49.0789 147.418 48.6477C150.177 47.8107 152.962 47.0751 155.797 46.4918C158.43 45.9591 161.089 45.4519 163.646 44.6656C167.62 43.4989 171.19 41.2161 174.228 38.4261C176.051 36.6761 177.747 34.7991 179.418 32.8969C181.19 30.8678 182.785 28.6865 184.658 26.7335C187.114 24.1464 189.797 21.7876 192.658 19.6824C194.785 18.0084 197.063 16.5881 199.418 15.2438C199.595 15.1423 199.772 15.0916 199.949 14.9901C200.101 14.8887 200.152 14.7111 200.076 14.5336H199.975ZM61.6202 135.036C61.6202 135.036 61.6202 135.036 61.5696 135.036H61.5949H61.6202ZM67.6708 107.77C69.6202 101.379 71.4936 94.9617 73.5189 88.5954C75.4177 82.077 77.3164 75.5585 79.3164 69.0908C81.5442 61.431 83.3164 53.6443 85.6708 46.0099C87.3417 40.6328 89.2151 35.3064 91.3164 30.0815C93.2151 25.3639 95.3417 20.7223 98.2278 16.512C95.8734 22.1173 93.443 27.672 91.3923 33.3788C89.4177 38.3754 87.7468 43.4735 86.3037 48.6477C82.7847 60.0867 80.6582 71.9061 77.2658 83.3705C75.8227 88.4432 74.2025 93.4652 72.4556 98.4619C71.2151 102.038 69.7468 105.614 68.5316 109.191C65.8227 117.13 63.3164 125.144 60.2278 132.956C60.1772 133.007 60.1265 133.058 60.0759 133.109C59.9746 133.083 59.8734 133.109 59.7974 133.134C60.3291 131.46 60.8354 129.761 61.2658 128.061C63.3164 121.264 65.5696 114.542 67.6708 107.77ZM143.772 45.4265C140.835 47.4556 137.899 49.4847 135.114 51.6913C130.481 55.3944 125.975 59.2243 121.494 63.105C118.886 65.4384 116.532 68.0509 114.076 70.5619C111.646 73.0982 109.19 75.5839 106.886 78.2217C103.823 81.6458 100.683 85.0191 97.7468 88.57C95.1645 91.6137 92.8101 94.8602 90.4809 98.1068C88.7594 100.415 87.0126 102.723 85.3923 105.107C83.4683 107.872 81.4683 110.56 79.5442 113.325C77.6202 116.115 75.7215 118.905 73.848 121.72C72.6582 123.496 71.4683 125.297 70.0759 126.945C68.4303 128.898 66.7341 130.953 64.8607 132.754C64.1518 133.388 63.4683 134.022 62.7847 134.681C62.7847 134.681 62.7847 134.681 62.7594 134.681C62.4303 134.605 62.4303 134.301 62.5063 134.047C63.848 132.551 65.1898 131.08 66.5063 129.558C68.1012 127.706 69.5442 125.728 70.886 123.699C78.0253 113.249 85.2404 102.824 92.9113 92.7297C95.7721 89.0012 98.7341 85.3235 101.924 81.874C107.418 76.0404 113.089 70.4097 118.759 64.7282C126.076 57.4235 133.873 50.5753 142.354 44.6656C149.114 40.1001 156.304 36.1941 163.721 32.8208C156.785 36.5492 150.304 41.0893 143.772 45.4519V45.4265Z" fill="#5534DA"/>
<path d="M150 173.766C149.797 174.197 149.519 174.578 149.215 174.933C146.025 178.255 141.316 179.98 136.861 180.868C132.354 181.806 127.721 180.944 123.316 179.955C127.696 176.328 132.607 172.092 133.595 166.182C134.557 159.106 127.899 154.515 121.494 154.211C100.076 153.5 80.7341 165.142 62.5822 175.212C55.6961 178.991 48.0252 183.835 39.848 181.933C38.7088 181.603 37.5442 180.868 37.1898 179.65C37.2151 179.321 37.0632 178.94 36.7341 178.788C34.2024 178.281 35.9999 181.857 37.1645 182.491C47.2151 188.249 61.1898 177.571 70.0759 172.954C79.2404 167.932 88.7088 162.86 98.6834 159.588C106.962 157.127 116.759 154.388 125.291 156.696C129.645 157.964 133.038 162.53 131.645 167.095C129.899 172.371 125.367 176.099 121.139 179.397C114.481 177.799 107.57 176.049 100.683 177.038C96.886 177.723 92.5062 179.067 90.6075 182.719C87.6455 188.705 95.0632 189.872 99.367 189.745C107.443 189.491 115.139 186.169 121.519 181.274C128.759 183.176 135.924 183.886 142.987 180.893C146.177 179.422 149.797 177.799 151.519 174.527C152.051 173.538 150.481 172.726 149.975 173.715L150 173.766ZM99.1391 188.046C96.81 187.868 92.7088 188.198 91.7214 185.585C91.5695 182.288 95.2151 180.361 97.9493 179.524C104.962 177.393 112.354 179.168 119.291 180.792C113.443 185.078 106.43 187.843 99.1391 188.046Z" fill="#5534DA"/>
</g>
<path d="M13.616 263.782V232.087H1.14001V224.722H35.1147V232.087H22.6387V263.782H13.616Z" fill="#5534DA"/>
<path d="M54.9477 263.782V257.923L54.3908 256.639V246.149C54.3908 244.289 53.8152 242.838 52.6642 241.797C51.5503 240.755 49.8237 240.234 47.4844 240.234C45.8878 240.234 44.3098 240.495 42.7503 241.015C41.2279 241.499 39.9283 242.169 38.8515 243.024L35.7325 236.942C37.3663 235.789 39.3342 234.896 41.6363 234.264C43.9384 233.631 46.2777 233.315 48.6541 233.315C53.2211 233.315 56.7671 234.394 59.292 236.551C61.8169 238.709 63.0794 242.076 63.0794 246.651V263.782H54.9477ZM45.8136 264.228C43.4743 264.228 41.4692 263.838 39.7984 263.056C38.1275 262.238 36.8465 261.141 35.9553 259.764C35.0642 258.388 34.6186 256.844 34.6186 255.133C34.6186 253.347 35.0456 251.785 35.8996 250.446C36.7908 249.106 38.1832 248.065 40.0768 247.321C41.9705 246.54 44.4397 246.149 47.4844 246.149H55.449V251.227H48.4313C46.3891 251.227 44.9781 251.562 44.1984 252.231C43.4557 252.901 43.0844 253.738 43.0844 254.742C43.0844 255.858 43.5114 256.751 44.3654 257.421C45.2566 258.053 46.4633 258.369 47.9857 258.369C49.4338 258.369 50.7334 258.034 51.8844 257.365C53.0355 256.658 53.8709 255.635 54.3908 254.296L55.7275 258.313C55.0963 260.248 53.9452 261.717 52.2743 262.722C50.6034 263.726 48.4498 264.228 45.8136 264.228Z" fill="#5534DA"/>
<path d="M79.7582 264.228C77.1961 264.228 74.7269 263.931 72.3506 263.335C70.0113 262.703 68.1548 261.922 66.781 260.992L69.6772 254.742C71.051 255.598 72.6662 256.305 74.5227 256.863C76.4164 257.383 78.2729 257.644 80.0923 257.644C82.0974 257.644 83.5084 257.402 84.3253 256.918C85.1793 256.435 85.6063 255.765 85.6063 254.91C85.6063 254.203 85.2721 253.682 84.6037 253.347C83.9725 252.975 83.1185 252.696 82.0417 252.51C80.9649 252.324 79.7767 252.138 78.4772 251.952C77.2147 251.766 75.9337 251.524 74.6341 251.227C73.3345 250.892 72.1464 250.408 71.0696 249.776C69.9928 249.144 69.1202 248.288 68.4518 247.209C67.8206 246.13 67.505 244.735 67.505 243.024C67.505 241.127 68.0434 239.453 69.1202 238.002C70.2341 236.551 71.8307 235.417 73.9101 234.598C75.9894 233.743 78.4772 233.315 81.3734 233.315C83.4156 233.315 85.4949 233.538 87.6113 233.985C89.7278 234.431 91.4915 235.082 92.9025 235.938L90.0063 242.131C88.5582 241.276 87.0915 240.699 85.6063 240.402C84.1582 240.067 82.7472 239.899 81.3734 239.899C79.4426 239.899 78.0316 240.16 77.1404 240.681C76.2493 241.201 75.8037 241.871 75.8037 242.689C75.8037 243.433 76.1194 243.991 76.7506 244.363C77.4189 244.735 78.2915 245.033 79.3683 245.256C80.4451 245.479 81.6147 245.684 82.8772 245.87C84.1767 246.019 85.4763 246.261 86.7759 246.595C88.0755 246.93 89.2451 247.414 90.2847 248.046C91.3615 248.641 92.2341 249.478 92.9025 250.557C93.5708 251.599 93.905 252.975 93.905 254.686C93.905 256.546 93.348 258.202 92.2341 259.653C91.1202 261.066 89.505 262.182 87.3885 263.001C85.3092 263.819 82.7658 264.228 79.7582 264.228Z" fill="#5534DA"/>
<path d="M105.185 257.644L105.408 247.042L119.387 233.761H129.747L116.324 247.432L111.813 251.115L105.185 257.644ZM97.9999 263.782V222.378H106.689V263.782H97.9999ZM120.334 263.782L110.197 251.171L115.656 244.419L130.861 263.782H120.334Z" fill="#5534DA"/>
<path d="M133.502 263.782V233.761H142.191V263.782H133.502ZM137.847 229.576C136.25 229.576 134.95 229.111 133.948 228.181C132.945 227.251 132.444 226.098 132.444 224.722C132.444 223.345 132.945 222.192 133.948 221.262C134.95 220.332 136.25 219.867 137.847 219.867C139.443 219.867 140.743 220.314 141.745 221.206C142.748 222.062 143.249 223.178 143.249 224.554C143.249 226.005 142.748 227.214 141.745 228.181C140.78 229.111 139.48 229.576 137.847 229.576Z" fill="#5534DA"/>
<path d="M150.047 263.782V233.092C150.047 229.707 151.05 227.01 153.055 225.001C155.06 222.955 157.919 221.932 161.632 221.932C162.894 221.932 164.101 222.062 165.252 222.322C166.44 222.583 167.443 222.992 168.26 223.55L165.976 229.855C165.494 229.521 164.955 229.26 164.361 229.074C163.767 228.888 163.136 228.795 162.467 228.795C161.205 228.795 160.221 229.167 159.515 229.911C158.847 230.618 158.513 231.697 158.513 233.148V235.938L158.736 239.676V263.782H150.047ZM145.424 241.127V234.431H166.199V241.127H145.424Z" fill="#5534DA"/>
<path d="M173.593 275.053C172.034 275.053 170.493 274.812 168.97 274.328C167.448 273.844 166.204 273.175 165.239 272.319L168.413 266.125C169.082 266.721 169.843 267.186 170.697 267.52C171.588 267.855 172.461 268.023 173.315 268.023C174.54 268.023 175.505 267.725 176.211 267.13C176.953 266.572 177.622 265.623 178.216 264.284L179.775 260.601L180.444 259.653L191.193 233.761H199.548L186.013 265.623C185.048 268.041 183.934 269.938 182.672 271.315C181.446 272.691 180.072 273.658 178.55 274.216C177.065 274.774 175.412 275.053 173.593 275.053ZM178.717 264.954L165.35 233.761H174.317L184.677 258.871L178.717 264.954Z" fill="#5534DA"/>
<defs>
<clipPath id="clip0_540_4817">
<rect width="164.557" height="189.796" fill="white" transform="translate(35.443)"/>
</clipPath>
</defs>
</svg>
