<svg width="16" height="16" viewBox="0 0 16 16" fill="none" xmlns="http://www.w3.org/2000/svg">
<g id="arrow_forward_ios_FILL0_wght300_GRAD0_opsz24 4">
<path id="Vector" d="M6.1126 8.00034L11.1344 13.0221C11.2669 13.1546 11.3314 13.3123 11.328 13.4952C11.3246 13.6781 11.2566 13.8358 11.1241 13.9683C10.9917 14.1008 10.834 14.167 10.6511 14.167C10.4682 14.167 10.3105 14.1008 10.178 13.9683L5.07416 8.85417C4.95365 8.73366 4.86434 8.59863 4.80621 8.44906C4.7481 8.29948 4.71905 8.14991 4.71905 8.00034C4.71905 7.85078 4.7481 7.7012 4.80621 7.55162C4.86434 7.40206 4.95365 7.26702 5.07416 7.14651L10.1883 2.03241C10.3207 1.89993 10.4767 1.8354 10.6562 1.83881C10.8357 1.84223 10.9917 1.91018 11.1241 2.04266C11.2566 2.17514 11.3229 2.33283 11.3229 2.51573C11.3229 2.69863 11.2566 2.85631 11.1241 2.98879L6.1126 8.00034Z" fill="#D9D9D9"/>
</g>
</svg>
