<svg width="16" height="16" viewBox="0 0 16 16" fill="none" xmlns="http://www.w3.org/2000/svg">
<g id="arrow_forward_ios_FILL0_wght300_GRAD0_opsz24 7">
<path id="Vector" d="M9.88716 8.00063L4.86536 2.97883C4.73288 2.84636 4.66835 2.68867 4.67176 2.50577C4.67518 2.32286 4.74313 2.16517 4.87561 2.0327C5.00809 1.90022 5.16578 1.83398 5.34868 1.83398C5.53158 1.83398 5.68926 1.90022 5.82174 2.0327L10.9256 7.1468C11.0461 7.26731 11.1354 7.40235 11.1935 7.55192C11.2517 7.7015 11.2807 7.85107 11.2807 8.00063C11.2807 8.1502 11.2517 8.29977 11.1935 8.44935C11.1354 8.59892 11.0461 8.73396 10.9256 8.85447L5.81149 13.9686C5.67901 14.101 5.52303 14.1656 5.34354 14.1622C5.16406 14.1587 5.00809 14.0908 4.87561 13.9583C4.74313 13.8258 4.67689 13.6682 4.67689 13.4853C4.67689 13.3024 4.74313 13.1447 4.87561 13.0122L9.88716 8.00063Z" fill="#333236"/>
</g>
</svg>
