<svg width="16" height="16" viewBox="0 0 16 16" fill="none" xmlns="http://www.w3.org/2000/svg">
<g id="arrow_forward_ios_FILL0_wght300_GRAD0_opsz24 6">
<path id="Vector" d="M6.11284 7.99937L11.1346 13.0212C11.2671 13.1536 11.3317 13.3113 11.3282 13.4942C11.3248 13.6771 11.2569 13.8348 11.1244 13.9673C10.9919 14.0998 10.8342 14.166 10.6513 14.166C10.4684 14.166 10.3107 14.0998 10.1783 13.9673L5.07441 8.8532C4.9539 8.73269 4.86458 8.59765 4.80646 8.44808C4.74835 8.2985 4.71929 8.14893 4.71929 7.99937C4.71929 7.8498 4.74835 7.70023 4.80646 7.55065C4.86458 7.40108 4.9539 7.26604 5.07441 7.14553L10.1885 2.03143C10.321 1.89896 10.477 1.83442 10.6565 1.83783C10.8359 1.84125 10.9919 1.9092 11.1244 2.04168C11.2569 2.17416 11.3231 2.33185 11.3231 2.51475C11.3231 2.69765 11.2569 2.85534 11.1244 2.98782L6.11284 7.99937Z" fill="#333236"/>
</g>
</svg>
