<svg width="182" height="182" viewBox="0 0 182 182" fill="none" xmlns="http://www.w3.org/2000/svg">
<rect width="182" height="182" rx="6" fill="#F5F5F5"/>
<path d="M89.5783 92.4221H83.418C83.019 92.4221 82.6822 92.2848 82.4078 92.0104C82.1333 91.7359 81.9961 91.3992 81.9961 91.0002C81.9961 90.6012 82.1333 90.2645 82.4078 89.99C82.6822 89.7155 83.019 89.5783 83.418 89.5783H89.5783V83.418C89.5783 83.019 89.7155 82.6822 89.99 82.4078C90.2645 82.1333 90.6012 81.9961 91.0002 81.9961C91.3992 81.9961 91.7359 82.1333 92.0104 82.4078C92.2848 82.6822 92.4221 83.019 92.4221 83.418V89.5783H98.5824C98.9814 89.5783 99.3181 89.7155 99.5926 89.99C99.8671 90.2645 100.004 90.6012 100.004 91.0002C100.004 91.3992 99.8671 91.7359 99.5926 92.0104C99.3181 92.2848 98.9814 92.4221 98.5824 92.4221H92.4221V98.5824C92.4221 98.9814 92.2848 99.3181 92.0104 99.5926C91.7359 99.8671 91.3992 100.004 91.0002 100.004C90.6012 100.004 90.2645 99.8671 89.99 99.5926C89.7155 99.3181 89.5783 98.9814 89.5783 98.5824V92.4221Z" fill="#5534DA"/>
</svg>
