<svg width="16" height="16" viewBox="0 0 16 16" fill="none" xmlns="http://www.w3.org/2000/svg">
<path d="M7.49968 8.56702V10.7337C7.49968 10.8756 7.54754 10.9944 7.64326 11.0901C7.73898 11.1858 7.85778 11.2337 7.99966 11.2337C8.14154 11.2337 8.26034 11.1858 8.35606 11.0901C8.45178 10.9944 8.49964 10.8756 8.49964 10.7337V8.56702H10.6663C10.8082 8.56702 10.927 8.51916 11.0227 8.42344C11.1184 8.32772 11.1663 8.20892 11.1663 8.06704C11.1663 7.92516 11.1184 7.80636 11.0227 7.71064C10.927 7.61492 10.8082 7.56706 10.6663 7.56706H8.49964V5.40037C8.49964 5.2585 8.45178 5.1397 8.35606 5.04398C8.26034 4.94825 8.14154 4.90039 7.99966 4.90039C7.85778 4.90039 7.73898 4.94825 7.64326 5.04398C7.54754 5.1397 7.49968 5.2585 7.49968 5.40037V7.56706H5.33299C5.19111 7.56706 5.07231 7.61492 4.97659 7.71064C4.88087 7.80636 4.83301 7.92516 4.83301 8.06704C4.83301 8.20892 4.88087 8.32772 4.97659 8.42344C5.07231 8.51916 5.19111 8.56702 5.33299 8.56702H7.49968ZM3.53814 13.7337C3.20139 13.7337 2.91634 13.617 2.68301 13.3837C2.44967 13.1504 2.33301 12.8653 2.33301 12.5286V3.60552C2.33301 3.26877 2.44967 2.98372 2.68301 2.75039C2.91634 2.51706 3.20139 2.40039 3.53814 2.40039H12.4612C12.7979 2.40039 13.083 2.51706 13.3163 2.75039C13.5496 2.98372 13.6663 3.26877 13.6663 3.60552V12.5286C13.6663 12.8653 13.5496 13.1504 13.3163 13.3837C13.083 13.617 12.7979 13.7337 12.4612 13.7337H3.53814ZM3.53814 12.7337H12.4612C12.5125 12.7337 12.5595 12.7123 12.6022 12.6696C12.645 12.6269 12.6663 12.5798 12.6663 12.5286V3.60552C12.6663 3.55424 12.645 3.50722 12.6022 3.46447C12.5595 3.42174 12.5125 3.40037 12.4612 3.40037H3.53814C3.48685 3.40037 3.43984 3.42174 3.39709 3.46447C3.35436 3.50722 3.33299 3.55424 3.33299 3.60552V12.5286C3.33299 12.5798 3.35436 12.6269 3.39709 12.6696C3.43984 12.7123 3.48685 12.7337 3.53814 12.7337Z" fill="white"/>
</svg>
